<svg width="295" height="60" viewBox="0 0 295 60" fill="none" xmlns="http://www.w3.org/2000/svg">
<path fill-rule="evenodd" clip-rule="evenodd" d="M295.212 0.547492C295.704 0.481985 296.123 0.426285 296.278 0H178.594C178.568 0.189141 178.526 0.37421 178.484 0.561688L178.484 0.561816C178.413 0.872268 178.341 1.18933 178.341 1.54244C178.193 1.61672 177.968 1.63996 177.729 1.66477C177.27 1.71217 176.757 1.7653 176.615 2.19109C176.34 1.77695 175.8 1.53909 175.278 1.30869C174.982 1.17821 174.691 1.05013 174.457 0.89379C173.81 1.32622 172.947 1.32622 172.084 0.89379C171.976 0.89379 171.868 1.0019 171.76 1.11001C171.652 1.21811 171.544 1.32622 171.436 1.32622C171.247 1.13662 171.224 0.947028 171.203 0.775654C171.176 0.55616 171.153 0.366559 170.789 0.245142C170.208 0.943364 169.878 0.702105 169.461 0.39781C169.249 0.243113 169.014 0.0721252 168.713 0H168.099C168.061 0.00810982 168.023 0.0177191 167.984 0.0289258L167.984 0H163.918C163.777 0.153786 163.668 0.307572 163.668 0.461358C163.15 0.201898 162.866 0.409466 162.581 0.617033C162.391 0.755412 162.201 0.89379 161.942 0.89379C161.942 1.75865 161.726 2.19109 161.079 2.4073C160.863 2.4073 160.432 2.19109 160.432 1.75865C160.432 2.24432 160.159 2.3209 159.844 2.40955C159.598 2.47876 159.326 2.55534 159.137 2.83974C158.813 2.4073 158.49 2.4073 158.139 2.4073C157.788 2.4073 157.411 2.40731 156.979 1.97487C156.547 1.97487 156.332 2.19109 156.116 2.4073C155.726 2.14707 155.18 2.12175 154.619 2.09572C154.248 2.0785 153.87 2.06097 153.527 1.97487C153.527 1.32622 153.527 0.677574 153.095 0.677574C153.095 0.588014 153.132 0.535551 153.175 0.474087C153.237 0.387164 153.311 0.282239 153.311 0.0289258C153.049 0.0289258 153.025 0.187494 152.999 0.3606C152.982 0.473359 152.964 0.592287 152.879 0.677574C152.448 0.677574 152.232 0.461358 152.232 0.245142C151.95 0.339325 151.791 0.597613 151.63 0.859166L151.63 0.859213V0.859238C151.421 1.19811 151.209 1.54244 150.721 1.54244C150.721 1.45288 150.684 1.40042 150.641 1.33895C150.58 1.25203 150.506 1.1471 150.506 0.89379C150.379 0.89379 150.271 0.912338 150.182 0.927705C149.966 0.964801 149.858 0.983349 149.858 0.677574C149.642 0.89379 149.211 0.89379 148.779 0.677574C148.348 1.11001 147.916 1.97487 148.132 2.4073C148.052 2.4878 147.941 2.53833 147.824 2.59235C147.625 2.68345 147.404 2.78451 147.269 3.05595C146.406 2.62352 145.758 2.19109 145.327 1.54244C145.162 1.54244 145.06 1.57398 144.973 1.60093C144.832 1.64452 144.73 1.67607 144.464 1.54244C144.248 1.54244 144.032 1.97487 144.032 2.19109C143.557 2.09589 143.166 2.16836 142.766 2.24239C142.258 2.33649 141.736 2.43312 141.011 2.19109C140.758 2.19109 140.728 2.26528 140.702 2.32675C140.684 2.37021 140.669 2.4073 140.58 2.4073C140.148 2.4073 139.501 2.40731 139.285 1.97487C138.969 1.97487 138.884 2.20662 138.777 2.50047C138.738 2.60801 138.695 2.72387 138.638 2.83974C138.06 2.49217 137.729 2.82747 137.414 3.1471C137.142 3.42398 136.88 3.68911 136.48 3.48838C136.372 3.48838 136.372 3.59649 136.372 3.7046C136.372 3.81271 136.372 3.92082 136.264 3.92082C135.994 3.65054 135.725 3.80258 135.455 3.9546C135.293 4.04582 135.131 4.13703 134.969 4.13703C134.848 4.13703 134.795 4.00067 134.734 3.84281C134.686 3.71955 134.632 3.58318 134.538 3.48838C134.43 3.7046 134.322 3.65055 134.214 3.59649C134.106 3.54244 133.998 3.48838 133.89 3.7046C133.675 3.7046 133.567 3.59649 133.459 3.48838C133.351 3.38027 133.243 3.27217 133.027 3.27217C132.919 3.27217 132.919 3.38028 132.919 3.48838C132.919 3.59649 132.919 3.7046 132.812 3.7046C132.524 3.56046 132.62 3.41631 132.716 3.27217L132.716 3.2721C132.764 3.20005 132.812 3.128 132.812 3.05595C132.712 2.85611 132.474 2.74862 132.204 2.62678C131.89 2.48499 131.533 2.32375 131.301 1.97487C130.985 1.97487 130.901 2.09074 130.793 2.23765C130.754 2.29143 130.712 2.34937 130.654 2.4073C130.559 2.31278 130.424 2.38355 130.283 2.45702C130.102 2.55161 129.912 2.65069 129.791 2.4073C129.597 2.4073 129.446 2.53836 129.281 2.68265C129.078 2.85937 128.852 3.05595 128.496 3.05595C128.618 3.42314 128.325 3.65176 128.009 3.89869C127.767 4.08797 127.511 4.28801 127.417 4.56947C127.18 4.56947 127.203 4.5044 127.237 4.40995C127.264 4.33224 127.299 4.23464 127.201 4.13703C126.885 4.13703 126.916 4.36878 126.956 4.66262C126.97 4.77016 126.985 4.88603 126.985 5.0019C126.338 5.21812 125.907 5.43433 125.691 6.08298C125.259 6.08298 125.043 6.2992 124.828 6.51541C124.551 6.23818 123.92 6.13868 123.331 6.046C123.002 5.99411 122.686 5.94436 122.454 5.86676C122.307 6.0874 122.21 6.30805 122.121 6.51167C121.948 6.90666 121.802 7.23761 121.375 7.38028C120.296 7.16406 119.649 7.16406 119.002 8.02893C118.354 7.59649 117.491 7.81271 117.06 8.02893C116.154 7.78151 115.312 7.78575 114.532 7.78968C113.267 7.79605 112.168 7.80158 111.233 6.73163C110.802 6.94784 110.155 7.16406 109.507 7.16406C109.507 6.99889 109.476 6.8968 109.449 6.80961C109.405 6.66854 109.374 6.56645 109.507 6.2992C109.248 6.2992 109.222 6.5327 109.196 6.76622C109.179 6.92189 109.162 7.07757 109.076 7.16406C108.968 7.16406 108.914 7.16406 108.887 7.13709C108.86 7.11008 108.86 7.05603 108.86 6.94784C108.802 6.97681 108.748 7.0019 108.698 7.02518C108.374 7.1757 108.213 7.25096 108.213 7.81271C107.925 7.81271 107.829 7.62051 107.733 7.42832L107.733 7.4282C107.685 7.33214 107.637 7.2361 107.565 7.16406C107.134 7.59649 106.702 7.16406 106.486 6.94784C106.271 6.94784 106.163 7.05595 106.055 7.16406C105.947 7.27217 105.839 7.38028 105.623 7.38028C105.546 7.22508 105.413 7.12558 105.274 7.02181C105.026 6.83644 104.76 6.63745 104.76 6.08298C103.511 5.61347 102.261 4.69084 101.175 3.88905L101.175 3.88882C100.761 3.58299 100.37 3.29475 100.013 3.05595C100.013 2.98388 99.9889 2.91181 99.9649 2.83974C99.9169 2.69559 99.869 2.55145 100.013 2.4073C99.5813 1.75866 98.7182 1.97487 98.0708 2.4073C98.0708 2.2992 98.0169 2.19109 97.9629 2.08298C97.909 1.97487 97.855 1.86676 97.855 1.75865C97.4627 2.05349 97.0258 1.99095 96.6456 1.93653C96.1894 1.87123 95.8149 1.81762 95.6972 2.4073C95.4815 1.75866 95.2657 1.32622 94.6183 1.11001C93.971 1.54244 92.8921 1.11001 92.029 0.677574C91.8282 0.878715 91.5808 0.705622 91.265 0.484678C90.9018 0.230615 90.4482 -0.0867199 89.8712 0.0289258L89.8638 0H-72.1809V60H115.238C115.321 59.8226 115.359 59.6123 115.329 59.3501C115.727 59.1535 116.197 59.3593 116.658 59.5607C117.21 59.8021 117.747 60.0373 118.129 59.5662C118.129 59.7357 118.146 59.8787 118.178 60H147.762C147.85 59.9486 147.945 59.929 148.057 59.9983C148.057 59.9989 148.057 59.9994 148.057 60H160.374C160.369 59.9739 160.362 59.9479 160.355 59.9204C160.333 59.8332 160.308 59.7312 160.308 59.5662C161.358 58.918 162.058 58.4859 162.758 57.1895H162.933C163.283 57.1895 163.108 57.6216 163.108 57.6216C163.181 57.6216 163.253 57.5475 163.338 57.4606C163.458 57.3378 163.603 57.1895 163.808 57.1895C164.242 57.1895 164.764 56.9183 165.327 56.6258C166.353 56.0925 167.517 55.4882 168.534 56.3253C169.059 55.8931 169.759 55.461 170.634 55.8931C170.634 55.9826 170.664 56.0721 170.699 56.177C170.749 56.3253 170.809 56.5043 170.809 56.7574C171.334 56.5413 172.034 56.9734 172.209 57.1895C172.384 57.2975 172.428 57.1895 172.472 57.0815C172.515 56.9734 172.559 56.8654 172.734 56.9734C172.734 56.9014 172.715 56.8534 172.695 56.8054C172.656 56.7094 172.617 56.6133 172.734 56.3253C173.123 56.5173 173.65 56.3679 174.177 56.2186C174.836 56.0318 175.495 55.8451 175.884 56.3253C176.934 56.3253 177.46 55.8931 178.16 55.245C178.535 55.5536 178.82 55.4213 179.208 55.2418C179.363 55.17 179.535 55.0906 179.735 55.0289V55.6771C180.111 55.5843 180.648 55.6111 181.18 55.6376C181.887 55.6728 182.585 55.7076 182.885 55.461C183.41 56.5413 184.635 56.3253 185.685 56.1092C185.685 56.5953 185.981 56.4738 186.202 56.3827C186.276 56.3523 186.342 56.3253 186.385 56.3253C186.735 56.7574 187.26 56.7574 187.785 56.7574C188.311 56.7574 188.836 56.7574 189.186 57.1895C189.077 57.056 189.17 57.005 189.297 56.9345C189.376 56.8909 189.469 56.8399 189.536 56.7574C189.623 56.8114 189.722 56.8519 189.82 56.8924C190.115 57.014 190.411 57.1355 190.411 57.6216C190.586 57.6216 190.761 57.6216 190.761 57.1895C190.936 57.6216 191.811 58.0537 191.811 57.1895C192.184 57.3737 192.62 57.4401 193.053 57.5059C193.635 57.5945 194.209 57.6819 194.611 58.0537C195.111 57.8068 195.611 57.8421 196.111 57.8774C196.486 57.9038 196.861 57.9303 197.236 57.8377C197.84 58.7312 198.775 58.4957 199.7 58.263C200.116 58.1581 200.531 58.0537 200.912 58.0537C200.999 58.0537 200.999 57.9997 200.999 57.9187C200.999 57.8377 200.999 57.7297 201.087 57.6216C201.485 57.9493 201.782 58.0285 202.208 58.1419C202.344 58.178 202.493 58.2176 202.662 58.2698C202.972 57.9825 203.351 58.1196 203.707 58.2485C204.155 58.4105 204.567 58.5595 204.762 57.8377C205.112 57.8377 205.287 57.8377 205.287 58.0537C205.462 58.0537 205.462 57.6217 205.462 57.1896V57.1895C205.73 57.1895 205.691 57.4417 205.657 57.6571C205.647 57.7236 205.637 57.7867 205.637 57.8377C205.812 57.8377 205.812 57.6216 205.812 57.4056C205.987 57.4056 205.987 57.6216 205.987 57.8377C206.186 57.8377 206.328 57.6287 206.478 57.4086C206.592 57.241 206.711 57.0668 206.862 56.9734C207.22 56.9734 207.66 57.1242 208.139 57.2887C209.066 57.6064 210.14 57.975 211.063 57.4056L211.588 58.0537C211.675 58.0537 211.675 57.9997 211.675 57.9187C211.675 57.8377 211.675 57.7297 211.763 57.6216C212.181 58.3956 212.599 58.3224 213.128 58.2297C213.486 58.1671 213.894 58.0957 214.388 58.2698C214.388 57.567 214.954 57.3722 215.444 57.2035C215.858 57.061 216.218 56.937 216.138 56.5413C216.138 56.4401 216.253 56.4811 216.394 56.5311C216.553 56.5879 216.745 56.6562 216.838 56.5413C216.98 56.2784 217.151 56.1221 217.315 55.9716C217.557 55.751 217.784 55.5426 217.888 55.0289C218.203 54.9319 218.481 55.0961 218.773 55.2675C219.13 55.4779 219.506 55.6992 219.989 55.461C220.251 56.1092 220.82 56.3253 221.389 56.5413C221.957 56.7574 222.526 56.9734 222.789 57.6216C222.876 57.5136 223.008 57.5136 223.117 57.5136C223.226 57.5136 223.314 57.5136 223.314 57.4056C223.649 59.0588 225.424 59.3284 226.803 59.5378C226.866 59.5473 226.928 59.5568 226.989 59.5662C226.989 59.743 227.008 59.8851 227.042 60H367.181V29.3899C367.008 29.4073 366.835 29.4073 366.687 29.4073C366.598 29.4073 366.582 29.3702 366.564 29.3267C366.539 29.2653 366.508 29.1911 366.255 29.1911C365.531 29.4331 365.009 29.3365 364.501 29.2424C364.101 29.1684 363.71 29.0959 363.235 29.1911C363.235 28.9749 363.019 28.5424 362.803 28.5424C362.536 28.6761 362.434 28.6445 362.294 28.6009C362.207 28.574 362.105 28.5424 361.94 28.5424C361.508 29.1911 360.861 29.6235 359.998 30.056C359.862 29.7845 359.642 29.6835 359.443 29.5924C359.325 29.5383 359.215 29.4878 359.135 29.4073C359.35 28.9749 358.919 28.11 358.487 27.6776C358.056 27.8938 357.624 27.8938 357.408 27.6776C357.408 27.9834 357.301 27.9648 357.085 27.9277C356.995 27.9123 356.888 27.8938 356.761 27.8938C356.761 28.1471 356.687 28.252 356.626 28.339C356.582 28.4004 356.545 28.4529 356.545 28.5424C356.058 28.5424 355.846 28.1981 355.637 27.8592C355.476 27.5976 355.317 27.3393 355.035 27.2451C355.035 27.4614 354.819 27.6776 354.388 27.6776C354.302 27.5923 354.284 27.4734 354.267 27.3606C354.241 27.1875 354.217 27.0289 353.956 27.0289C353.956 27.2822 354.03 27.3872 354.091 27.4741C354.135 27.5356 354.172 27.588 354.172 27.6776C353.74 27.6776 353.74 28.3262 353.74 28.9749C353.397 29.061 353.019 29.0785 352.647 29.0957C352.086 29.1217 351.54 29.1471 351.151 29.4073C350.935 29.1911 350.719 28.9749 350.288 28.9749C349.856 29.4073 349.479 29.4073 349.128 29.4073C348.777 29.4073 348.454 29.4073 348.13 29.8397C347.941 29.5553 347.668 29.4788 347.422 29.4095C347.107 29.3209 346.835 29.2443 346.835 28.7587C346.835 29.1911 346.404 29.4073 346.188 29.4073C345.541 29.1911 345.325 28.7587 345.325 27.8938C345.066 27.8938 344.876 27.7554 344.686 27.617C344.401 27.4095 344.116 27.2019 343.599 27.4614C343.599 27.2451 343.383 27.0289 343.167 26.8127C342.551 27.0594 341.866 26.8135 341.15 26.5567C340.611 26.3635 340.055 26.1641 339.499 26.1641C339.283 26.3803 339.283 26.8127 339.283 27.0289C338.585 26.8292 338.164 27.1367 337.806 27.3978C337.389 27.7021 337.058 27.9434 336.478 27.2451C336.114 27.3666 336.091 27.5562 336.064 27.7757C336.043 27.947 336.02 28.1366 335.83 28.3262C335.723 28.3262 335.615 28.2181 335.507 28.11C335.399 28.0019 335.291 27.8938 335.183 27.8938C334.32 28.3262 333.457 28.3262 332.809 27.8938C332.575 28.0501 332.285 28.1782 331.989 28.3087C331.467 28.5391 330.927 28.777 330.652 29.1911C330.51 28.7653 329.996 28.7122 329.538 28.6648C329.298 28.64 329.074 28.6167 328.925 28.5424C328.925 28.1893 328.853 27.8722 328.783 27.5617C328.681 27.1118 328.582 26.6758 328.71 26.1641C328.494 26.2722 328.332 26.2722 328.197 26.2722C328.062 26.2722 327.954 26.2722 327.846 26.3803C327.442 25.5706 327.038 25.7084 326.457 25.9068C326.432 25.9152 326.407 25.9238 326.382 25.9324L326.336 25.9478C326.336 25.7316 326.12 25.5154 325.904 25.5154C325.771 25.918 325.47 25.9041 325.107 25.8874C324.885 25.8771 324.64 25.8658 324.394 25.9478C323.996 25.3503 323.599 25.4867 323.033 25.6809L323.031 25.6814C322.983 25.6979 322.934 25.7148 322.884 25.7316C322.091 25.1359 321.844 25.0873 320.973 24.9158C320.924 24.9061 320.873 24.8961 320.82 24.8855L320.726 24.8668C320.634 24.4987 320.347 24.3264 320.08 24.1666C319.721 23.951 319.399 23.758 319.647 23.137C319.236 23.137 319.086 23.0501 318.976 22.9865C318.913 22.9498 318.863 22.9208 318.784 22.9208C318.699 22.8355 318.681 22.7166 318.664 22.6038C318.637 22.4307 318.613 22.2722 318.352 22.2722C318.568 21.8397 318.784 21.1911 318.352 20.9749C318.352 21.2343 318.119 21.2603 317.886 21.2862C317.731 21.3035 317.575 21.3208 317.489 21.4073C317.273 20.9749 316.842 20.7587 316.41 21.1911C316.41 20.9749 316.194 20.9749 315.979 20.9749C315.793 21.0491 315.615 21.1232 315.441 21.1953C314.603 21.543 313.888 21.8397 313.173 21.8397C312.958 21.4073 312.742 20.9749 312.31 20.9749C312.31 21.1911 312.094 21.1911 312.094 21.1911C311.959 21.0555 311.866 20.9199 311.783 20.7976L311.782 20.7973C311.599 20.5298 311.46 20.3262 311.016 20.3262C311.016 20.5424 311.231 20.7587 311.231 20.7587C311.016 20.7587 310.962 20.6505 310.908 20.5424C310.854 20.4343 310.8 20.3262 310.584 20.3262C309.326 20.6063 308.521 19.9794 307.758 19.3854C307.343 19.0623 306.94 18.7489 306.484 18.5965C306.426 18.6544 306.384 18.7124 306.345 18.7662C306.237 18.9131 306.153 19.0289 305.837 19.0289C305.729 18.8127 305.567 18.7587 305.405 18.7046C305.243 18.6505 305.082 18.5965 304.974 18.3803C304.974 18.5965 304.974 19.0289 304.758 19.0289C304.974 18.8127 304.542 18.8127 304.326 18.8127C304.159 19.0641 304.024 19.1856 303.922 19.2779C303.76 19.4237 303.679 19.4966 303.679 19.8938C303.096 19.4073 302.47 19.096 301.84 18.7825C301.069 18.3993 300.291 18.0128 299.579 17.2992C299.579 17.5154 299.579 17.5154 299.363 17.5154C299.579 17.9478 299.579 17.9478 299.363 18.3803C300.227 19.0289 300.011 20.11 299.363 20.9749C299.076 21.119 298.98 21.071 298.884 21.0229C298.836 20.9989 298.788 20.9749 298.716 20.9749C298.716 21.1911 298.608 21.2992 298.5 21.4073C298.392 21.5154 298.285 21.6235 298.285 21.8397C298.042 21.7183 297.936 21.8014 297.813 21.8977C297.717 21.9728 297.611 22.056 297.421 22.056C297.354 22.0221 297.287 21.9882 297.222 21.9549C296.457 21.5637 295.86 21.2588 295.264 22.056C294.773 23.695 293.414 22.9733 292.221 22.3398C291.841 22.1376 291.477 21.9444 291.164 21.8397C291.164 21.8397 291.164 22.056 290.948 22.056C290.855 21.4031 290.601 20.8307 290.36 20.2867C290.042 19.5695 289.746 18.9018 289.869 18.1641C290.301 17.9478 291.379 16.8668 290.301 16.6505C289.869 17.2992 289.222 17.9478 287.927 17.7316C287.064 16.6505 285.985 15.7857 284.906 14.9208C284.906 14.7046 284.906 14.4884 285.122 14.2722C285.122 14.1826 285.085 14.093 285.041 13.9881C284.98 13.8397 284.906 13.6606 284.906 13.4073C283.491 12.6985 284.024 11.8038 284.559 10.9061C284.84 10.4345 285.122 9.96216 285.122 9.51541C285.553 9.51541 285.985 8.86676 286.201 8.43433C287.331 8.43433 287.639 7.93998 287.986 7.38285L287.986 7.38257C288.037 7.3016 288.088 7.21932 288.143 7.13703C289.437 7.13703 290.732 7.78568 290.516 9.51541C290.905 9.51541 291.06 9.28191 291.215 9.0484C291.319 8.89272 291.423 8.73703 291.595 8.65055C291.89 7.56612 291.782 6.57159 291.679 5.62597V5.62581C291.555 4.49755 291.44 3.43891 292.027 2.38028C292.148 2.31971 292.273 2.25914 292.4 2.19739C293.184 1.81823 294.06 1.39428 294.616 0.650546C294.819 0.599857 295.021 0.572935 295.212 0.547492ZM294.4 13.8397C294.616 13.6235 294.832 13.4073 294.832 13.1911C295.479 13.1911 295.695 13.1911 296.127 13.4073C295.911 14.056 294.832 14.056 294.4 13.8397ZM292.027 13.4073C292.243 13.1911 292.458 13.4073 292.674 13.6235C292.548 13.6235 292.44 13.6421 292.351 13.6574C292.135 13.6945 292.027 13.7131 292.027 13.4073ZM290.732 16.0019C290.732 15.8761 290.75 15.7136 290.771 15.5305V15.5302C290.821 15.0841 290.885 14.5157 290.732 14.056C290.84 14.056 290.894 14.0019 290.948 13.9478C291.002 13.8938 291.056 13.8397 291.164 13.8397C291.083 14.1618 291.123 14.5139 291.159 14.8401C291.221 15.3899 291.274 15.8662 290.732 16.0019Z" fill="#E50012"/>
</svg>
