<svg width="128" height="21" viewBox="0 0 128 21" fill="none" xmlns="http://www.w3.org/2000/svg">
<g clip-path="url(#clip0_2_4586)">
<path d="M51.0022 16.9676C51.0569 16.9754 51.1012 16.9754 51.1512 16.9969C50.7947 16.9041 50.3995 16.9627 50.0336 16.8846C49.679 16.8094 49.2603 16.6648 48.951 16.4587C48.4832 16.1481 48.2371 15.3061 48.0588 14.8001C47.8467 14.1994 47.5562 13.6602 47.1988 13.1493C47.096 13.0028 47.0403 12.8387 46.8706 12.9012C46.7697 12.9383 46.6358 13.1698 46.5735 13.2617C46.3396 13.6094 46.1548 13.9923 45.9341 14.3449C45.5531 14.9564 45.0429 15.4926 44.7015 16.1364C44.561 16.4011 44.4752 16.571 44.2498 16.7781C44.0291 16.9813 43.8207 17.1376 43.6311 17.3661C42.9776 18.1515 41.6337 18.2335 40.7765 17.835C40.0013 17.4746 39.592 16.1705 39.3562 15.4399C39.2562 15.1303 39.1648 14.8362 39.0205 14.5325C38.7536 13.9708 38.5197 13.3847 38.399 12.7664C38.2802 12.1579 38.1726 11.5152 38.1679 10.8412C38.1642 10.2463 38.0001 9.55572 37.885 8.97551C37.7737 8.41385 37.7803 7.8395 37.7011 7.27101C37.6294 6.75429 37.4418 6.20729 37.4965 5.66614C37.5502 5.13868 37.7237 4.68056 37.5795 4.12868C37.4757 3.73015 37.1419 3.13431 36.8505 2.84518C37.1192 2.75922 37.9284 2.69182 38.1349 2.87253C38.4075 3.11086 38.3688 3.79755 38.7611 3.86104C39.1025 3.91671 38.9856 3.55237 38.9969 3.30622C39.1685 3.48302 39.261 3.71354 39.4392 3.8835C39.6665 3.75457 39.6693 3.2652 39.7749 3.03565C39.79 3.00244 40.2191 3.54358 40.2625 3.6227C40.4332 3.9343 40.6095 4.3299 40.6972 4.67763C40.8246 5.18361 40.8274 5.71205 40.8274 6.26199C40.8274 6.87443 40.701 7.47614 40.7237 8.07393C40.7425 8.57307 40.8302 9.12105 40.9292 9.6114C41.05 10.2111 41.2904 10.8148 41.6016 11.3227C41.729 11.1547 41.8959 11.102 42.0223 10.9271C42.1298 10.7787 42.1213 10.6234 42.1948 10.4661C42.357 10.1232 42.7088 9.90541 43.0691 9.93569C43.054 10.1301 42.8757 10.3166 42.7824 10.4876C42.6711 10.6917 42.6192 10.9174 42.5051 11.1196C42.2948 11.4927 41.9826 11.7301 41.8582 12.152C41.7893 12.3845 41.6705 12.6756 41.6809 12.9217C41.6743 12.8963 41.6648 12.8709 41.6535 12.8475C41.7139 12.742 42.0336 12.572 42.1637 12.4451C42.3288 12.2829 42.4598 12.0983 42.6088 11.9117C42.8937 11.5552 43.1634 11.2309 43.4246 10.8568C43.9688 10.0773 44.5308 9.3125 45.0165 8.51642C45.2664 8.10714 45.6238 7.45367 45.4965 6.9682C45.1023 6.9096 44.8213 7.20068 44.6157 7.51814C44.5025 7.69298 44.4507 7.90983 44.3271 8.071C44.2055 8.23022 43.9848 8.32497 43.9235 8.53498C44.0649 8.11496 44.3347 7.7301 44.545 7.34427C44.7996 6.87736 44.9505 6.39581 45.5465 6.48176C45.8983 6.53256 46.2548 6.56088 46.6103 6.50814C46.9026 6.46516 47.211 6.32157 47.5005 6.32059C47.7759 6.31962 47.9061 6.44269 48.0485 6.68201C48.2031 6.94281 48.3597 7.22412 48.5087 7.49763C48.6539 7.76331 48.736 8.36697 49.0255 8.48711C49.1387 8.534 49.2707 8.44609 49.3725 8.52814C49.4414 8.58382 49.5017 8.85243 49.5329 8.93741C49.4876 8.94132 49.6243 8.87978 49.581 8.86025C49.6649 8.51642 49.812 8.29957 49.9874 7.99774C50.0685 7.85904 50.1383 7.70959 50.2194 7.57088C50.3411 7.36088 50.3863 7.3345 50.5882 7.25636C50.7824 7.18115 50.8352 7.19677 50.9305 6.96234C50.9927 6.80997 51.0437 6.64 51.105 6.48176C51.2408 6.13012 51.3888 5.80192 51.4982 5.44344C51.6095 5.07812 51.7915 4.73233 51.9358 4.3719C52.1895 4.39241 52.6308 4.45981 52.8534 4.57996C52.0612 4.99216 51.6453 5.87615 51.2417 6.64196C51.0446 7.01607 50.8098 7.3726 50.608 7.73596C50.3854 8.13645 50.2901 8.60433 50.0789 9.02239C49.9356 9.30664 49.9007 9.4639 49.8856 9.79015C49.8733 10.0578 49.9337 10.2502 49.961 10.4944C49.9412 10.4553 49.9186 10.4192 49.8912 10.386C50.4458 10.219 50.8022 9.48539 50.9956 9.01556C51.2398 8.42167 51.4699 7.79262 51.7821 7.23682C52.2216 6.45344 53.1043 4.03393 54.3114 5.00388C54.5905 5.22854 54.7688 5.53428 54.9451 5.8449C55.0875 6.09789 55.2639 6.72303 55.1592 6.98969C55.0762 7.1997 55.1762 7.68908 55.1281 7.94695C55.0743 8.22924 54.9668 8.51739 54.8499 8.79285C54.6254 9.32227 54.4944 9.89662 54.2878 10.4456C53.7503 11.8717 53.0656 13.2089 52.4752 14.5842C52.2668 15.0687 51.9914 15.5093 51.7585 15.983C51.5982 16.3092 51.1021 16.6677 51.0022 16.9676Z" fill="white"/>
<path d="M43.1426 9.82745C43.1492 9.67898 43.2265 9.46116 43.2774 9.33027C43.3086 9.25115 43.3104 9.2531 43.3878 9.28631C43.4387 9.30878 43.5009 9.35371 43.5377 9.39278C43.3802 9.51683 43.2501 9.69363 43.1426 9.82745Z" fill="white"/>
<path d="M68.7349 8.42321C68.4926 8.1038 68.0276 7.7375 67.6759 7.55972C67.2977 7.36925 66.9695 7.30381 66.7828 6.86425C66.6244 6.49112 66.581 6.03691 66.4357 5.65499C66.1302 4.85011 65.802 3.50996 64.9891 3.11143C64.5741 2.90825 64.2695 3.05477 63.8583 3.06063C63.4745 3.06649 63.3132 2.68457 62.9832 2.63671C62.7804 2.6074 62.5795 2.80569 62.4447 2.92779C62.1353 3.2091 61.7591 3.48358 61.4733 3.78443C61.0866 4.19175 60.8056 4.75341 60.4727 5.20566C59.9069 5.97342 59.3759 6.83202 58.6979 7.50014C58.5356 7.65936 58.3499 7.77267 58.2065 7.94751C57.9943 8.20734 57.9462 8.53944 57.767 8.84127C57.5435 9.21734 57.4473 9.60317 57.2493 9.98314C57.0088 10.4452 56.6061 10.8046 56.3251 11.2383C56.1318 11.5372 55.7753 11.9406 55.6583 12.1301C55.4169 12.0715 55.0982 12.0989 55.0095 12.2923C54.9105 12.5091 54.8897 12.8334 54.8002 13.0776C54.7058 13.3355 54.5729 13.6324 54.6361 13.8971C54.7153 14.2244 54.9727 14.1423 55.1642 14.3386C55.3698 14.5496 55.3462 14.9794 55.233 15.2138C55.4839 15.4356 55.7196 15.6759 55.9799 15.8771C56.1874 16.0373 56.2119 16.0324 56.1195 16.2981C56.0657 16.4514 55.9884 16.6019 55.9347 16.7455C56.3722 16.9594 56.5731 17.2133 56.8872 17.5552C57.3747 17.1928 57.5973 16.4241 57.9217 15.924C58.3367 15.2832 58.7035 14.617 59.1156 13.9723C59.3099 13.6695 59.5202 13.3746 59.7041 13.0688C59.7956 12.9164 59.8739 12.5814 60.0389 12.5267C60.2294 12.4632 60.567 12.6625 60.7368 12.7142C61.1263 12.8344 61.4582 12.7484 61.8279 12.6068C62.8162 12.2288 63.8046 12.2434 64.824 12.2307C64.9221 12.4202 64.8891 12.6488 64.9391 12.8529C64.99 13.06 65.0796 13.2114 65.1909 13.3873C65.4474 13.7955 65.8256 13.9147 66.232 14.1316C66.6989 14.3797 66.8752 14.1999 67.2175 13.7799C67.5561 13.3648 67.7202 12.851 67.7862 12.3323C67.8522 11.8136 67.7032 11.3126 67.7089 10.788C67.7155 10.1922 67.9645 9.99974 68.4049 9.61196C68.8519 9.22027 69.1244 8.937 68.7349 8.42321ZM57.8114 10.4295C57.669 10.7558 57.3813 11.0332 57.1427 11.293C56.9004 11.5567 56.6306 11.6896 56.724 12.092C56.6137 12.1096 56.5062 12.1164 56.3977 12.135C56.4637 12.095 56.4364 11.9533 56.4741 11.8527C56.5184 11.7365 56.5788 11.7052 56.6608 11.6329C56.9362 11.3956 57.0729 11.0918 57.2493 10.7704C57.4436 10.4168 57.4643 9.84053 57.9792 9.88644C57.9066 10.0584 57.8878 10.2557 57.8114 10.4295ZM58.96 8.79048C58.845 9.20268 58.199 9.35897 58.083 9.7282C58.0641 9.46153 58.1216 9.24664 58.2574 9.00635C58.3282 8.88034 58.4385 8.53749 58.5573 8.48377C58.7544 8.39293 59.0119 8.60098 58.96 8.79048ZM62.9049 3.72973C62.5616 3.95146 62.3673 4.20738 62.0731 4.49651C61.5657 4.99468 61.0697 5.61591 60.7 6.22934C60.3228 6.85448 59.9814 7.38195 59.3448 7.75508C59.3439 7.76387 59.341 7.77071 59.341 7.7795C59.3203 7.78146 59.3014 7.7756 59.3033 7.78146C59.3184 7.77364 59.3307 7.76387 59.3448 7.75508C59.3561 7.66717 59.4061 7.60466 59.4438 7.52163C59.5447 7.2999 59.6956 7.15826 59.8069 6.93849C59.9314 6.69331 60.0455 6.40223 60.2143 6.19808C60.5085 5.84155 60.7698 5.38441 61.0461 5.01323C61.3526 4.60201 61.6798 4.21324 62.0627 3.88016C62.2428 3.72387 62.4192 3.56856 62.5965 3.41325C62.7097 3.31362 62.8775 3.07724 63.0313 3.08798C63.1689 3.09775 63.2614 3.30483 63.2887 3.43377C63.334 3.65647 63.0596 3.6301 62.9049 3.72973Z" fill="white"/>
<path d="M69.9738 8.04191C70.1143 8.16987 70.0493 8.31639 70.0511 8.48733C70.0606 9.23164 70.8961 9.83725 71.3639 10.3286C71.6459 10.6255 71.9731 10.8795 72.274 11.1501C72.5295 11.3806 72.7983 11.4656 72.7625 11.8729C72.7323 12.2148 72.5625 12.5918 72.4192 12.8995C72.2362 13.2922 72.0703 13.6936 71.8769 14.0785C71.4403 14.9459 71.1517 16.0653 70.4972 16.7812C70.1766 17.1319 69.8672 17.4298 69.606 17.8352C69.3457 18.2386 69.2561 18.7905 69.2769 19.2701C69.2939 19.6657 69.5051 19.9138 69.7607 20.1854C69.9606 20.3983 70.1983 20.7412 70.4435 20.8935C70.8179 21.127 71.4327 20.8965 71.8524 20.8984C72.0806 20.8994 72.3249 20.9414 72.4871 20.7929C72.572 20.7158 72.637 20.5839 72.7049 20.4872C73.0633 19.9734 73.4509 19.4752 73.7697 18.937C74.0677 18.435 74.3497 17.9202 74.6467 17.4123C74.7731 17.1964 74.9494 17.0049 75.1013 16.8008C75.2192 16.6425 75.3069 16.2596 75.4549 16.1444C75.6237 16.0115 75.7435 15.7068 75.8425 15.5222C75.9887 15.2516 76.1085 14.9722 76.2754 14.7173C76.6866 14.0863 77.0648 13.4367 77.4656 12.7979C77.7909 12.2792 78.072 11.7674 78.4181 11.2653C78.7406 10.7965 79.0509 10.3022 79.3743 9.84409C79.6808 9.40942 79.9996 8.98158 80.3146 8.54984C80.6984 8.02335 80.9917 7.47049 81.3227 6.91274C81.6179 6.41653 81.8197 5.84902 82.1432 5.3743C82.445 4.93083 82.7081 4.45318 82.9684 3.98237C83.3022 3.37676 83.456 2.65296 83.7408 2.02196C83.5474 2.03172 83.3428 2.07372 83.1513 2.02391C83.2966 1.71036 83.3513 1.30695 83.3126 0.978744C83.0221 0.967999 82.8307 1.11354 82.5431 0.920136C82.2715 0.737477 82.3818 0.546026 82.5619 0.34383C82.4242 0.227592 82.2554 0.0380953 82.0828 -0.00195312C82.0244 0.512815 81.4236 0.924044 81.0115 1.13991C80.8389 1.23076 80.6541 1.29229 80.4834 1.38509C80.2448 1.515 80.1014 1.73283 79.9308 1.94381C79.7101 2.21536 79.6695 2.54258 79.3989 2.77506C79.2348 2.91572 79.0763 3.00167 78.9415 3.17554C78.7708 3.39532 78.5831 3.60045 78.4058 3.81241C77.8739 4.44537 77.4533 5.14377 76.9252 5.76697C76.5942 6.15671 76.331 6.56598 76.0764 7.01823C75.9133 7.30834 75.7916 7.62384 75.6219 7.912C75.4323 8.23336 75.1928 8.52054 74.973 8.81553C74.4477 8.64654 73.9083 8.46974 73.4386 8.12591C72.6493 7.54765 72.1099 6.61091 71.4931 5.84902C71.379 5.70738 71.2762 5.54621 71.1159 5.4583C70.9386 5.3616 70.6943 5.32448 70.5114 5.27271C70.3001 5.21313 70.1228 5.18382 69.92 5.08224C69.7616 5.00214 69.5013 4.80483 69.3231 4.83413C69.3071 5.07735 69.4353 5.2522 69.4561 5.47295C69.3929 5.29908 69.1213 5.16429 68.9911 5.02168C68.7865 4.79701 68.579 4.81753 68.2772 4.83413C68.3527 5.27857 68.6016 5.74743 68.8506 6.13522C69.1005 6.52398 69.2571 6.96939 69.5183 7.3523C69.6635 7.56524 69.8088 7.7899 69.938 7.99991C69.9323 7.97646 69.9974 8.05656 69.9738 8.04191Z" fill="white"/>
<path d="M124.664 6.75549C124.703 6.776 124.742 6.79359 124.782 6.80922C124.611 6.81703 124.127 6.67442 124.213 6.43315C124.281 6.23975 124.845 6.1743 125.025 6.11472C125.422 5.9848 125.556 5.75038 125.867 5.49446C126.095 5.30691 126.384 5.26686 126.623 5.11546C126.884 4.95038 126.941 4.7013 127.11 4.45027C127.296 4.17481 127.495 4.02927 127.776 3.87396C128.05 3.72061 128.092 3.62781 127.785 3.5272C127.492 3.43148 127.54 3.38459 127.448 3.09448C127.309 2.65395 126.899 2.17142 127.608 2.03662C127.415 2.03662 127.231 2.04151 127.042 2.06202C126.079 2.16849 125.184 2.56311 124.231 2.74382C123.117 2.9548 122.022 3.26249 120.924 3.52818C120.495 3.63172 120.048 3.73721 119.605 3.8007C119.204 3.85833 118.796 3.86322 118.395 3.92378C117.671 4.03318 116.909 4.07909 116.18 4.22854C114.91 4.48934 113.546 4.66614 112.311 5.08518C111.784 5.26393 111.259 5.4925 110.722 5.58627C110.208 5.67614 109.704 5.75819 109.201 5.83829C108.656 5.92522 108.092 5.85782 107.569 6.04146C107.198 6.17137 106.611 6.43804 106.562 6.90494C106.599 6.6246 107.662 6.89908 107.136 7.30152C106.948 7.44608 106.849 7.44804 107.041 7.71372C107.221 7.96183 107.284 7.92471 107.509 7.77331C107.704 7.64242 107.824 7.62484 108.072 7.62386C108.23 7.62386 108.639 7.6219 108.558 7.8788C108.445 8.23826 107.633 8.10541 107.546 8.58209C107.49 8.88587 107.879 8.84387 108.074 8.90248C108.299 8.97085 108.515 9.08513 108.707 9.22482C108.919 9.38013 108.946 9.48953 109.227 9.44264C109.518 9.39478 109.939 9.33617 110.184 9.16914C110.373 9.03923 110.48 8.79894 110.711 9.0363C110.868 9.19747 110.888 9.48562 111.078 9.638C111.413 9.90564 111.916 9.64288 112.29 9.56083C112.564 9.50125 112.841 9.44166 113.099 9.33617C113.232 9.28147 113.319 9.19551 113.457 9.23751C113.754 9.32836 113.713 9.58232 113.647 9.7894C113.555 10.0785 113.467 10.3686 113.378 10.6539C113.299 10.9039 113.119 11.1178 113.05 11.3728C112.991 11.5886 112.961 11.8084 112.893 12.0223C112.727 12.5459 112.42 13.0616 112.366 13.6135C112.351 13.764 112.344 13.9691 112.379 14.1078C111.718 14.0306 111.944 14.8179 111.937 15.2213C112.095 15.0426 112.238 14.8521 112.339 14.6216C112.549 15.0797 112.397 15.8006 112.414 16.3134C112.729 16.3368 113.17 16.159 113.464 16.0428C113.582 15.9949 114.097 15.7224 113.919 16.1102C114.168 15.9647 114.166 15.7302 114.216 15.4665C114.285 15.0992 114.376 14.7251 114.493 14.3676C114.541 14.2191 114.67 13.6008 114.928 13.8597C115.111 14.0423 114.784 14.5092 114.765 14.7241C115.03 14.7827 115.135 14.478 115.221 14.2817C115.433 13.8021 115.67 13.3303 115.83 12.8292C116 12.2939 116.154 11.7537 116.333 11.2233C116.466 10.8297 116.604 10.3735 116.791 10.0092C116.953 9.69172 117.241 9.1916 117.518 8.95718C117.876 8.65535 118.507 8.50883 118.931 8.3711C119.952 8.03802 121.07 7.82312 122.123 7.62972C122.697 7.52423 123.237 7.42459 123.803 7.28003C124.081 7.2097 124.526 7.26538 124.695 6.97625C124.61 6.99187 124.744 6.71935 124.664 6.75549Z" fill="white"/>
<path d="M105.808 6.20838C105.633 5.55393 105.263 4.90046 104.633 4.57616C104.655 4.583 104.678 4.59082 104.702 4.59375C104.38 4.29778 103.725 4.63966 103.331 4.45114C102.941 4.26457 102.747 4.09461 102.323 4.32513C102.296 4.61426 102.398 4.56835 102.502 4.79301C102.572 4.94246 102.504 5.1974 102.465 5.36346C102.391 5.67017 102.281 6.0267 102.151 6.30899C102.07 6.48579 101.926 6.6284 101.89 6.81008C101.979 6.93023 102.101 6.85697 102.221 6.80813C102.018 7.2008 102.044 7.65989 101.82 8.07112C101.414 8.81934 100.794 9.65547 100.155 10.2337C99.7749 10.5776 99.2411 10.7016 98.8592 11.0464C98.5546 11.3219 98.3415 11.5827 97.9142 11.5749C98.2792 11.3727 98.4839 10.978 98.8347 10.7299C99.4364 10.3031 99.8711 9.62714 100.398 9.10945C100.664 8.84767 100.918 8.54291 101.142 8.23229C101.345 7.95293 101.476 7.52314 101.715 7.2809C101.253 7.50653 100.892 7.84353 100.591 8.27038C100.147 8.89944 99.6438 9.54998 99.0865 10.0892C98.8158 10.3509 98.5037 10.5004 98.2415 10.7905C98.0887 10.9595 97.7473 11.694 97.4984 11.6227C97.1598 11.526 97.1164 11.0923 97.2154 10.7788C97.3041 10.4994 97.4936 10.2034 97.6115 9.93386C97.7388 9.64375 97.901 9.35657 98.068 9.08893C98.2773 8.75292 98.8573 7.86208 98.697 7.47528C98.7366 7.49286 98.7781 7.50067 98.8196 7.49677C98.6281 7.37564 98.6366 6.79348 98.6253 6.56784C98.6027 6.13707 98.7102 5.81083 98.8828 5.44062C98.9695 5.25406 99.2515 4.53123 98.9601 4.54491C98.8271 4.55077 98.713 4.84381 98.5819 4.73929C98.5282 4.69631 98.5386 4.33685 98.5291 4.25968C98.4952 3.97446 98.4112 3.65212 98.217 3.43625C98.1491 3.62477 98.1038 3.84162 97.9293 3.95493C97.7596 4.06433 97.5436 4.03209 97.3588 4.12977C97.2494 4.18838 97.1994 4.29485 97.0957 4.22257C97.0212 4.17177 97.024 3.97446 97.0174 3.89925C96.9948 3.6277 97.0476 3.447 97.1579 3.2321C97.0023 3.19401 96.6694 3.17936 96.5855 3.25359C96.08 3.69901 96.0611 4.60351 95.6745 5.16615C95.5877 5.29215 95.4783 5.38495 95.3915 5.51291C95.2755 5.68482 95.3425 5.81278 95.0766 5.76101C94.8097 5.70826 94.5362 5.36053 94.3023 5.1974C93.9647 4.96102 93.6271 4.65724 93.2234 4.57616C92.7085 4.47262 92.1926 4.36322 91.689 4.17861C90.5677 3.76641 89.3814 3.5603 88.1723 3.62575C87.5575 3.65896 87.0388 3.7752 86.4494 3.95493C86.191 4.03405 85.9354 4.12098 85.6789 4.20108C85.346 4.30462 84.9452 4.32513 84.6273 4.46481C84.2011 4.65235 83.9163 5.14759 83.6805 5.53635C83.5522 5.74734 83.4334 5.98958 83.274 6.1781C83.0769 6.4096 82.8902 6.55221 82.8223 6.8765C82.6988 7.46746 82.9836 7.99102 82.7563 8.56244C82.5196 9.15535 82.0367 9.59784 81.7972 10.182C81.6076 10.643 81.8113 11.2428 81.7915 11.7224C81.7548 12.6493 81.7755 13.3907 82.2169 14.222C82.4517 14.6635 82.6856 15.0327 82.9855 15.4224C83.175 15.6696 83.3005 15.9597 83.5174 16.1736C83.8069 16.4578 84.2209 16.7059 84.5736 16.913C84.9603 17.1416 85.378 17.3731 85.7939 17.5333C86.9209 17.966 88.1139 18.0266 89.2493 17.7325C90.7912 17.333 91.839 16.2429 92.9895 14.9018C93.2942 14.5463 93.8496 13.8625 94.3259 13.4982C94.3325 13.5255 94.3419 13.5577 94.3325 13.5109C94.7776 13.7502 94.6729 14.2376 94.7814 14.6918C95.0492 15.8122 95.815 16.5526 96.958 16.5682C97.9416 16.5809 98.8196 16.2595 99.7363 15.9694C100.097 15.8552 100.902 15.6832 100.906 15.2036C100.943 15.1919 101.028 15.1919 101.066 15.2046C101.106 15.3052 101.134 15.4117 101.166 15.5172C101.256 15.818 101.276 16.0212 101.548 16.1814C101.762 16.3074 101.979 16.4676 102.2 16.5721C102.666 16.7919 103.296 16.6825 103.636 16.3035C104.024 15.8708 104.08 15.315 104.187 14.7524C104.354 13.8596 104.545 13.3302 104.642 12.6679C104.732 12.0554 104.941 11.4772 105.074 10.8794C105.215 10.2406 105.31 9.5744 105.506 8.94241C105.768 8.10335 106.035 7.06014 105.808 6.20838ZM83.4636 7.01032C83.3674 7.08847 83.5126 7.75952 83.1411 7.64524C83.1411 7.4743 83.209 6.89018 83.4636 7.01032C83.4664 7.00739 83.4693 7.00446 83.473 7.00251L83.4966 7.02693C83.4843 7.02009 83.474 7.01619 83.4636 7.01032ZM84.6717 5.16517H84.6481C84.683 5.03721 84.799 4.84967 84.9056 4.76175C85.0876 4.61035 85.2187 4.71585 85.4365 4.69729C85.3903 4.83306 85.313 5.01963 85.1932 5.10949C85.0178 5.24136 84.8754 5.14954 84.6717 5.16517ZM89.9755 11.8523C89.486 12.285 89.0154 12.8193 88.426 13.1123C87.896 13.3751 87.3424 13.463 86.7577 13.4356C86.2325 13.4112 85.6581 13.2628 85.0253 13.0088C84.9565 13.1133 84.9876 13.0606 85.0197 13.0068C85.0216 13.0078 85.0234 13.0088 85.0253 13.0088C85.0338 12.9961 85.0432 12.9814 85.0555 12.9639C85.0602 12.9648 85.0253 12.9678 85.031 12.9668C85.0357 12.2762 85.3299 11.9099 85.6553 11.3248C85.9109 10.8647 86.4107 10.1781 86.8058 9.8352C87.3953 9.32336 87.8045 8.91604 88.5326 8.64352C89.1484 8.41299 90.1933 8.24401 90.8346 8.3456C91.3948 8.43351 91.8418 8.49504 92.4567 8.98246C91.971 10.1956 90.9006 11.0347 89.9755 11.8523ZM104.501 4.51951C104.537 4.54198 104.576 4.55858 104.616 4.57226C104.591 4.57421 104.485 4.52146 104.501 4.51951Z" fill="white"/>
<path d="M87.9402 12.7752C88.3344 12.8611 88.9559 12.3044 89.1992 11.9654C89.2897 11.8384 89.3633 11.6949 89.4312 11.5532C89.0408 11.8521 88.6135 12.067 88.242 12.3981C88.1109 12.5154 88.0486 12.5964 87.9402 12.7752Z" fill="white"/>
<path d="M5.3519 17.895C5.4198 17.9565 5.49242 18.0171 5.57918 18.0415C5.70461 18.0767 5.83664 18.0317 5.96489 18.0103C6.72407 17.8852 7.40119 18.5905 8.16979 18.61C8.23958 18.612 8.31031 18.6071 8.37444 18.5817C8.51496 18.527 8.72432 18.3209 8.80259 18.189C9.46368 17.0696 10.0597 16.1504 10.7698 15.0643C11.7006 13.6421 12.6418 12.13 13.6537 10.7683C14.1309 11.1659 14.1338 11.8545 14.0489 12.4826C13.9263 13.392 13.8603 14.3981 14.0734 15.2899C14.1771 15.7236 14.66 16.423 14.8364 16.8303C15.1815 17.6283 15.3192 18.0884 15.9162 18.7077C16.1265 18.9255 16.3566 19.1336 16.6348 19.242C17.111 19.4266 17.6524 19.2869 18.0994 19.0359C18.6633 18.7204 18.9085 18.0855 19.2952 17.5101C19.7111 16.8918 19.9506 17.1028 20.7381 15.4726C21.3322 14.2418 21.6566 13.2992 22.3319 12.1954C22.4884 12.2931 22.595 12.4709 22.611 12.6584C22.8006 12.1622 22.7761 11.583 22.5441 11.1063C22.8704 10.4782 23.5616 10.1031 23.9926 9.58642C23.9568 9.67336 23.9172 9.76127 23.8662 9.84625C23.7182 10.0973 23.1655 10.8084 23.3909 11.1424C23.3692 11.1835 23.4692 11.1473 23.4268 11.1698C23.2891 11.4882 23.2966 11.8418 23.2297 12.1778C23.2052 12.3039 23.207 12.5373 23.1203 12.6418C23.0043 12.7815 22.8402 12.6946 22.7053 12.7551C23.1014 13.0433 23.058 13.6245 23.1222 14.0552C23.1901 14.5055 23.208 14.9773 23.2721 15.4286C23.4089 16.3859 23.92 17.3216 24.749 17.8618C25.8778 18.5963 27.4386 18.3492 28.6684 18.0532C29.3021 17.9009 30.016 17.6664 30.5734 17.3099C31.2835 16.8547 31.9238 16.3009 32.5708 15.75C32.8914 15.4774 33.0357 15.0965 33.3299 14.7937C33.7147 14.3971 34.0901 14.0416 34.3796 13.5707C34.6436 13.14 35.1887 12.7727 35.3217 12.2804C35.4415 11.8389 35.5594 11.3935 35.6886 10.9559C35.7385 10.7879 35.7914 10.6218 35.8036 10.447C35.7895 10.4929 35.7744 10.5378 35.7565 10.5827C35.748 10.3141 36.03 9.8902 36.0894 9.63135C36.1478 9.37348 36.1582 9.10975 36.1724 8.83918C36.1997 8.31757 36.1148 7.88095 35.9102 7.43455C35.7263 7.03309 35.4613 6.65019 35.2444 6.26924C34.9747 5.7955 34.6644 5.38232 34.306 4.97891C34.1504 4.80308 34.0259 4.57451 33.8722 4.40748C33.7062 4.22775 33.4827 4.25413 33.2866 4.13007C33.0546 3.98258 32.9018 3.7335 32.6915 3.5694C32.4529 3.38185 32.1388 3.21971 31.8701 3.08882C31.4778 2.89834 31.1609 2.83681 30.7327 2.81727C30.3876 2.80164 30.0971 2.66294 29.7859 2.5174C29.4483 2.36013 29.205 2.11398 28.8249 2.11496C28.7249 2.11496 28.3411 2.12863 28.3006 2.27222C28.2666 2.39334 28.5005 2.59652 28.5203 2.72741C28.575 3.08686 27.995 3.31836 27.7677 3.52837C27.4386 3.83313 27.1444 4.22189 26.8624 4.56279C26.2682 5.28073 25.8495 6.24189 25.3525 7.03798C25.2714 7.16789 25.195 7.2978 25.129 7.43162C25.0951 7.43944 25.063 7.43944 25.0319 7.43455C25.014 7.31441 25.0366 7.16691 25.079 7.05361C25.3073 6.43921 25.5345 5.82578 25.7628 5.21138C25.659 5.29636 25.5553 5.38037 25.4515 5.46535C25.2676 4.93788 25.3572 4.31762 25.6826 3.86927C25.7477 3.77941 25.825 3.68661 25.8269 3.57526C25.8307 3.37013 25.5873 3.24315 25.5562 3.03998C25.5062 2.71959 25.9995 2.41679 25.8099 2.15794C25.7411 2.06514 25.6109 2.04365 25.5355 1.95574C25.4233 1.82485 25.4704 1.59042 25.2252 1.54451C25.0847 1.51814 24.9404 1.57479 24.8404 1.68029C23.6192 2.97453 22.7817 4.65461 21.9197 6.23408C21.5095 6.98718 21.2143 7.75396 20.6343 8.37325C20.408 8.61452 20.1628 8.84015 19.9667 9.10779C19.7347 9.42427 19.5772 9.79057 19.4065 10.1471C18.9142 11.1796 18.2597 12.1651 17.5477 13.054C17.5194 13.0892 17.4647 13.0657 17.4675 13.0198C17.5166 11.9239 17.3543 11.0477 17.3289 10.0377C17.3053 9.12245 17.4298 8.06361 17.46 7.04872C17.4713 6.65996 17.2978 5.65777 17.1978 5.28269C17.0912 4.8822 16.9177 4.66047 16.6735 4.33129C16.3726 3.9269 16.1048 3.60359 15.7549 3.24413C15.6446 3.13082 15.3975 2.99114 15.2428 2.9677C14.8269 2.90616 14.6242 3.50688 14.2413 3.68466C14.1356 3.7335 14.0178 3.74815 13.9074 3.78234C13.6764 3.67001 13.4463 3.55768 13.2152 3.44535C13.1633 3.41995 13.1058 3.39358 13.0492 3.40725C13.0115 3.41604 12.9804 3.44242 12.9512 3.46684C12.8974 3.51177 12.8436 3.5567 12.7899 3.60163C12.7418 3.64168 12.6928 3.68271 12.6597 3.73545C12.5852 3.85267 12.5984 4.00602 12.6135 4.1457C12.7946 3.98356 13.0596 3.87025 13.2793 3.85267C13.4142 3.84192 13.5623 3.84778 13.6773 3.91225C13.5632 4.02165 13.4868 4.17794 13.3925 4.31176C11.5582 6.911 10.2681 9.03551 8.54136 11.3945C7.72655 12.507 6.89759 13.8413 6.08278 14.9539C5.6169 15.5898 5.13311 16.253 4.43335 16.589C4.64271 17.0882 4.95864 17.5365 5.3519 17.895ZM28.74 3.10933L28.674 3.1318C28.5778 3.07221 28.591 3.30078 28.6269 3.39944C28.5118 3.46195 28.4128 3.52544 28.2845 3.46781C28.1525 3.23534 28.5957 3.10835 28.74 3.10933ZM26.0306 12.3625C26.2343 11.9503 26.4814 11.5263 26.7634 11.1678C27.1953 10.6199 27.7234 10.1412 28.1657 9.60303C28.31 9.42623 28.458 9.24748 28.5825 9.06286C28.6269 8.99742 28.6316 8.92807 28.674 8.88313C28.8258 8.54516 29.1512 8.28436 29.3738 7.99035C29.5803 7.71685 29.7793 7.41404 30.0726 7.22454C30.2423 7.11514 30.4574 7.00184 30.6601 7.03016C30.6922 7.28804 30.5564 7.39744 30.8931 7.28706C31.0675 7.23041 31.2693 7.14933 31.4268 7.0663C31.2646 6.94909 31.0109 6.8729 30.9496 6.66875C31.5504 6.58572 31.9135 7.07607 32.22 7.55275C32.351 7.75592 32.4548 7.90927 32.633 8.07044C32.7518 8.17789 32.8829 8.25408 32.9546 8.40841C33.2253 8.99449 32.5698 9.4233 32.4114 9.93221C32.2916 10.318 32.2313 10.7849 32.0606 11.1346C31.8531 11.5576 31.3042 11.7998 30.9911 12.1456C30.3244 12.8831 29.5228 13.4106 28.6419 13.8765C28.5175 13.9429 28.1629 14.1568 28.0186 14.1158C27.7489 14.0377 28.0704 13.7388 28.1817 13.6284C28.4873 13.3275 28.8164 13.0745 29.1616 12.8245C29.3087 12.718 29.6567 12.5207 29.6765 12.3292C29.4209 12.2667 29.2465 12.3673 29.0456 12.5471C28.8089 12.76 28.5561 12.9329 28.3024 13.1234C27.8413 13.4711 27.4735 13.7602 26.9237 13.9615C26.6059 14.0777 25.8976 14.274 25.5911 14.0416C25.278 13.8022 25.8938 12.6389 26.0306 12.3625ZM24.4585 8.01574C24.5217 7.88192 24.6716 7.79401 24.8103 7.78034C24.9555 7.84676 24.9932 7.98644 24.9432 8.18571C24.8659 8.49046 24.5792 8.64089 24.3774 8.84992C24.3632 8.86457 24.3519 8.8802 24.3387 8.89583C24.3425 8.87532 24.3491 8.85578 24.3519 8.83527C24.3915 8.56079 24.3397 8.26483 24.4585 8.01574Z" fill="white"/>
<path d="M18.9035 8.99142C18.9516 8.88006 19.2874 8.12598 19.4005 8.13477C19.2949 8.12696 19.1902 8.11817 19.0846 8.11035C19.0544 8.34185 18.9177 8.54112 18.8111 8.74722C18.6706 9.01974 18.5093 9.90178 18.9035 8.99142Z" fill="white"/>
<path d="M20.8653 5.15759C21.003 5.06968 21.0916 4.90656 21.0945 4.73953L21.0388 4.69557C21.0643 4.69655 21.0454 4.65162 21.02 4.64771C20.9474 4.63696 20.8804 4.6985 20.8559 4.76981C20.8314 4.84111 20.8398 4.91926 20.8483 4.99447C20.853 5.04917 20.8587 5.10387 20.8653 5.15759Z" fill="white"/>
<path d="M23.142 1.54818C23.4174 1.28152 23.8587 1.14575 24.1756 1.34306C24.1747 1.34306 24.1737 1.34403 24.1728 1.34403L24.1813 1.34892C24.169 1.35869 24.1586 1.37236 24.1549 1.38897C24.1303 1.47981 24.0643 1.58042 24.1492 1.61461C24.2341 1.64879 24.4651 1.63219 24.5557 1.62047C24.5962 1.61558 24.6415 1.60679 24.6651 1.57358C24.7009 1.52279 24.6641 1.44953 24.6189 1.40753C24.5085 1.30496 24.3416 1.27664 24.2048 1.33231C24.1115 1.11742 23.9785 0.888851 23.7569 0.867361C23.6098 0.852709 23.4721 0.938667 23.3542 1.03146C22.744 1.51107 21.9999 2.74963 21.7887 3.51739C22.182 2.9743 22.3932 2.74377 22.4903 2.57186C22.6912 2.21826 22.8525 1.8295 23.142 1.54818Z" fill="white"/>
<path d="M6.54656 12.8716C6.41642 12.9654 6.29382 12.9175 6.1665 12.9673C6.04579 13.0142 5.99392 13.107 5.90904 13.231C5.72609 13.5006 5.55351 13.778 5.39413 14.0633C5.08669 14.6112 4.82451 15.1866 4.61044 15.7805C4.57649 15.8742 4.54442 15.9807 4.58592 16.0706C5.10838 14.9258 5.76853 13.8474 6.54656 12.8716Z" fill="white"/>
<path d="M8.14545 10.5027C8.2473 10.2849 8.37556 10.0798 8.52739 9.89517C8.45855 9.84828 8.36895 9.90298 8.30765 9.95964C8.13036 10.1237 7.98041 10.3181 7.86536 10.534C7.95872 10.535 8.05208 10.5359 8.14545 10.5369V10.5027Z" fill="white"/>
<path d="M8.67709 9.67526C8.74782 9.67429 8.89211 9.48674 8.93832 9.43595C9.04206 9.31971 9.13071 9.19078 9.21842 9.06184C9.51171 8.63205 9.80878 8.1964 9.98419 7.70215C9.78237 7.76564 9.64657 7.95514 9.52491 8.13291C9.22407 8.57149 8.92418 9.01007 8.62334 9.44865C8.55449 9.55023 8.53563 9.67722 8.67709 9.67526Z" fill="white"/>
<path d="M10.5521 6.69288C10.5521 6.73586 10.5521 6.77884 10.5521 6.82181L10.5511 6.66162C10.3578 6.86284 10.2267 7.12853 10.1833 7.40887C10.4285 7.27602 10.5813 6.97908 10.5521 6.69288Z" fill="white"/>
<path d="M11.3709 5.53042C10.9673 5.15435 10.8824 6.28255 10.8334 6.43297C10.905 6.21319 11.6878 5.82541 11.3709 5.53042Z" fill="white"/>
<path d="M11.9223 4.87305C11.7582 4.9678 11.628 5.12408 11.562 5.30674C11.5846 5.30576 11.6063 5.30088 11.6271 5.29502C11.7374 5.16413 11.8364 5.02347 11.9223 4.87305Z" fill="white"/>
<path d="M11.6384 5.29103C11.6818 5.2754 11.7224 5.25001 11.7535 5.21484L11.6384 5.29103Z" fill="white"/>
<path d="M11.6375 5.2915C11.6338 5.29248 11.6291 5.29443 11.6253 5.29639C11.6234 5.29834 11.6215 5.30127 11.6196 5.3042L11.6375 5.2915Z" fill="white"/>
<path d="M12.5748 4.18057C12.5861 4.16885 12.5993 4.15811 12.6116 4.14736C12.6078 4.13759 12.5927 4.1542 12.5748 4.18057Z" fill="white"/>
<path d="M12.4957 4.27102C12.2863 4.26418 12.0949 4.47517 12.1147 4.69201C12.1854 4.69104 12.258 4.68908 12.3241 4.66173C12.3901 4.63438 12.4485 4.57578 12.4561 4.50252C12.4627 4.4361 12.4306 4.35893 12.4721 4.30911C12.4787 4.33353 12.5344 4.23683 12.573 4.18115C12.5447 4.20948 12.5183 4.23976 12.4957 4.27102Z" fill="white"/>
<path d="M26.0052 5.16222C26.0354 5.1212 26.0382 5.0665 26.0401 5.01571C26.0429 4.9317 26.0458 4.84672 26.0486 4.76272L26.0759 4.66992C25.9514 4.77444 25.8722 4.93561 25.8637 5.10166C25.8628 5.12706 25.8628 5.15441 25.8779 5.1759C25.9071 5.21595 25.975 5.20227 26.0052 5.16222Z" fill="white"/>
<path d="M26.5258 4.35363C26.6041 4.21785 26.6003 4.0518 26.6843 3.87891C26.3928 4.03422 26.1618 4.40247 26.1854 4.73164C26.3061 4.65057 26.4494 4.48452 26.5258 4.35363Z" fill="white"/>
<path d="M30.4433 7.50488C30.3008 7.58791 29.453 8.02356 29.4832 8.13491C29.6077 8.005 29.8802 7.98937 30.0424 7.91123C30.248 7.81355 30.3461 7.7061 30.4433 7.50488Z" fill="white"/>
<path d="M30.9355 11.2702C31.1477 11.0475 31.2014 10.8785 31.2495 10.5835C31.1005 10.6431 30.8912 10.7847 30.8591 10.8306C30.6365 10.9273 30.3659 11.573 30.381 11.8025C30.596 11.7224 30.779 11.4353 30.9355 11.2702Z" fill="white"/>
<path d="M40.4794 10.1735C40.4596 10.1832 40.4954 10.2174 40.5058 10.194C40.5162 10.1705 40.5001 10.1432 40.485 10.1246C40.2851 9.87555 40.0739 9.64112 39.8513 9.42427C39.972 9.14588 40.237 8.97885 40.4869 9.02379C40.4577 8.90169 40.419 8.76494 40.3257 8.71317C40.2313 8.66042 40.1238 8.71903 40.021 8.74052C39.9201 8.76201 39.8107 8.74442 39.7278 8.66921C39.6448 8.594 39.6787 8.43283 39.6787 8.30487C39.6787 8.16421 39.807 8.25896 39.9022 8.30487C39.9305 8.27263 39.9277 8.05872 39.9022 8.02453C39.8768 7.99034 39.7938 7.99034 39.7579 7.97667C39.6316 7.92685 39.5816 7.93466 39.4552 7.88485C39.5674 7.74419 39.5674 7.60451 39.6231 7.53418C26.3201 7.53418 14.5827 9.77982 1.95498 10.2067C1.80975 10.4929 1.53532 10.6501 1.39669 10.9422C1.30427 11.1366 1.28163 11.3739 1.19015 11.5693C0.93081 12.1319 0.21502 12.1778 0 12.7698C13.1756 12.8606 23.6937 9.70949 40.4794 10.1735Z" fill="#E40521"/>
</g>
<defs>
<clipPath id="clip0_2_4586">
<rect width="128" height="21" fill="white"/>
</clipPath>
</defs>
</svg>
