<svg width="14" height="14" viewBox="0 0 14 14" fill="none" xmlns="http://www.w3.org/2000/svg">
<path fill-rule="evenodd" clip-rule="evenodd" d="M11.8375 0.754395L12.6624 1.57935L11.9082 2.33354L13.6582 4.08354L10.7916 6.95017L9.0416 5.20016L7.43951 6.80225C7.61886 7.04482 7.76904 7.30848 7.88643 7.5879C8.08011 8.04893 8.18069 8.54372 8.18236 9.04379C8.18404 9.54385 8.08678 10.0393 7.89619 10.5016C7.7056 10.964 7.42543 11.384 7.07183 11.7376C6.71823 12.0912 6.29818 12.3714 5.83586 12.562C5.37354 12.7526 4.87808 12.8498 4.37802 12.8481C3.87795 12.8465 3.38316 12.7459 2.92213 12.5522C2.46109 12.3585 2.04293 12.0755 1.6917 11.7196L1.68733 11.7151C0.996645 11 0.61449 10.0422 0.623129 9.04806C0.631768 8.0539 1.03053 7.1029 1.73354 6.39989C2.43654 5.69689 3.38754 5.29812 4.3817 5.28948C5.18252 5.28252 5.95973 5.52915 6.60551 5.98634L11.8375 0.754395ZM11.0833 3.1585L9.86656 4.37521L10.7916 5.30025L12.0083 4.08354L11.0833 3.1585ZM6.26597 7.21963L6.23827 7.19287C5.74319 6.71471 5.08011 6.45012 4.39184 6.45611C3.70358 6.46209 3.04519 6.73815 2.5585 7.22485C2.0718 7.71155 1.79573 8.36993 1.78975 9.0582C1.78378 9.74543 2.04756 10.4076 2.52437 10.9024C2.76707 11.1478 3.05578 11.3429 3.374 11.4766C3.69318 11.6107 4.03573 11.6803 4.38193 11.6815C4.72812 11.6826 5.07113 11.6153 5.3912 11.4834C5.71127 11.3514 6.00207 11.1574 6.24687 10.9126C6.49167 10.6678 6.68563 10.377 6.81758 10.057C6.94953 9.7369 7.01686 9.3939 7.0157 9.0477C7.01454 8.7015 6.94491 8.35895 6.81082 8.03977C6.68251 7.73435 6.4976 7.4561 6.26597 7.21963Z" fill="#F7F5F9"/>
</svg>
