<svg width="234" height="38" viewBox="0 0 234 38" fill="none" xmlns="http://www.w3.org/2000/svg">
<path d="M93.2383 30.6028C93.3383 30.6166 93.4194 30.6166 93.5107 30.6544C92.859 30.4909 92.1367 30.5942 91.4677 30.4565C90.8195 30.324 90.054 30.0693 89.4885 29.7062C88.6334 29.1589 88.1834 27.6754 87.8576 26.7839C87.4697 25.7255 86.9387 24.7755 86.2852 23.8754C86.0973 23.6172 85.9956 23.3281 85.6853 23.4382C85.5008 23.5036 85.256 23.9115 85.1422 24.0733C84.7146 24.686 84.3767 25.3606 83.9733 25.9819C83.2768 27.0593 82.3441 28.0041 81.72 29.1382C81.4631 29.6046 81.3062 29.9041 80.8941 30.2689C80.4907 30.6269 80.1097 30.9023 79.7632 31.305C78.5684 32.6887 76.1116 32.8332 74.5445 32.1311C73.1273 31.496 72.3791 29.1985 71.948 27.9112C71.7653 27.3656 71.5981 26.8476 71.3343 26.3123C70.8464 25.3228 70.4188 24.2901 70.1981 23.2007C69.9809 22.1286 69.7844 20.9961 69.7757 19.8086C69.7688 18.7605 69.4689 17.5438 69.2585 16.5215C69.0551 15.5319 69.0672 14.52 68.9223 13.5183C68.7913 12.6079 68.4482 11.6442 68.5482 10.6907C68.6465 9.76138 68.9637 8.95423 68.6999 7.98186C68.5103 7.27969 67.9 6.22987 67.3672 5.72045C67.8586 5.569 69.3378 5.45025 69.7154 5.76864C70.2137 6.18856 70.143 7.39843 70.8602 7.5103C71.4843 7.6084 71.2705 6.96646 71.2912 6.53277C71.605 6.84427 71.7739 7.25043 72.0998 7.54988C72.5153 7.32271 72.5204 6.46048 72.7135 6.05605C72.7411 5.99753 73.5255 6.95097 73.6049 7.09037C73.9169 7.63938 74.2393 8.33639 74.3996 8.94907C74.6324 9.84055 74.6376 10.7716 74.6376 11.7405C74.6376 12.8196 74.4065 13.8798 74.4479 14.933C74.4824 15.8125 74.6427 16.7779 74.8238 17.6419C75.0444 18.6986 75.4841 19.7622 76.053 20.6571C76.2858 20.3611 76.5909 20.2681 76.8219 19.9601C77.0185 19.6985 77.003 19.4249 77.1374 19.1478C77.434 18.5437 78.077 18.1599 78.7356 18.2133C78.708 18.5557 78.3822 18.8845 78.2115 19.1856C78.0081 19.5453 77.9133 19.9429 77.7046 20.2991C77.3202 20.9566 76.7495 21.3748 76.5219 22.1182C76.3961 22.5278 76.1789 23.0407 76.1978 23.4744C76.1858 23.4296 76.1685 23.3849 76.1478 23.3436C76.2582 23.1577 76.8426 22.8583 77.0805 22.6345C77.3822 22.3489 77.6219 22.0236 77.8943 21.6949C78.415 21.0667 78.908 20.4953 79.3856 19.8362C80.3804 18.4628 81.4079 17.1153 82.2958 15.7126C82.7527 14.9915 83.4061 13.8402 83.1733 12.9848C82.4527 12.8816 81.9389 13.3944 81.5631 13.9538C81.3562 14.2618 81.2614 14.6439 81.0355 14.9279C80.8131 15.2084 80.4097 15.3753 80.2976 15.7453C80.5562 15.0053 81.0493 14.3272 81.4338 13.6474C81.8993 12.8248 82.1751 11.9763 83.2647 12.1278C83.9078 12.2173 84.5595 12.2672 85.2094 12.1742C85.7439 12.0985 86.3076 11.8455 86.8369 11.8438C87.3404 11.8421 87.5783 12.0589 87.8386 12.4806C88.1213 12.9401 88.4075 13.4357 88.6799 13.9176C88.9454 14.3857 89.0954 15.4493 89.6247 15.661C89.8316 15.7436 90.073 15.5887 90.2592 15.7333C90.385 15.8314 90.4954 16.3047 90.5523 16.4544C90.4695 16.4613 90.7195 16.3528 90.6402 16.3184C90.7936 15.7126 91.0626 15.3306 91.3832 14.7988C91.5315 14.5544 91.6591 14.2911 91.8074 14.0467C92.0298 13.6767 92.1125 13.6302 92.4815 13.4925C92.8366 13.36 92.9332 13.3875 93.1073 12.9745C93.2211 12.706 93.3142 12.4066 93.4262 12.1278C93.6745 11.5082 93.9452 10.9299 94.1452 10.2983C94.3486 9.65468 94.6814 9.04544 94.9451 8.41039C95.4089 8.44653 96.2158 8.56528 96.6226 8.77696C95.1744 9.50323 94.4141 11.0607 93.6762 12.41C93.3159 13.0692 92.8866 13.6973 92.5177 14.3375C92.1108 15.0432 91.9367 15.8675 91.5505 16.6041C91.2884 17.1049 91.2246 17.382 91.197 17.9568C91.1746 18.4284 91.285 18.7674 91.335 19.1977C91.2988 19.1288 91.2574 19.0652 91.2074 19.0066C92.2211 18.7124 92.8728 17.4199 93.2263 16.5921C93.6728 15.5457 94.0935 14.4374 94.6641 13.4581C95.4675 12.0779 97.0812 7.81492 99.288 9.52388C99.7983 9.91971 100.124 10.4584 100.447 11.0057C100.707 11.4514 101.029 12.5529 100.838 13.0227C100.686 13.3927 100.869 14.2549 100.781 14.7093C100.683 15.2067 100.486 15.7144 100.272 16.1997C99.8621 17.1325 99.6225 18.1444 99.2449 19.1116C98.2622 21.6243 97.0105 23.9804 95.9313 26.4035C95.5503 27.2572 95.0469 28.0333 94.621 28.868C94.3279 29.4429 93.4211 30.0745 93.2383 30.6028Z" fill="white"/>
<path d="M78.8701 18.0221C78.8822 17.7605 79.0236 17.3767 79.1167 17.1461C79.1735 17.0067 79.177 17.0102 79.3184 17.0687C79.4115 17.1083 79.5253 17.1874 79.5925 17.2563C79.3046 17.4748 79.0667 17.7863 78.8701 18.0221Z" fill="white"/>
<path d="M125.656 15.5476C125.213 14.9848 124.363 14.3394 123.72 14.0262C123.029 13.6906 122.429 13.5753 122.087 12.8008C121.798 12.1434 121.718 11.3431 121.453 10.6702C120.894 9.25212 120.294 6.89089 118.808 6.18872C118.05 5.83075 117.493 6.0889 116.741 6.09923C116.039 6.10955 115.745 5.43664 115.141 5.35231C114.77 5.30068 114.403 5.65004 114.157 5.86517C113.591 6.36082 112.903 6.84442 112.381 7.37449C111.674 8.09216 111.16 9.08174 110.552 9.87856C109.517 11.2313 108.547 12.744 107.307 13.9212C107.011 14.2017 106.671 14.4014 106.409 14.7094C106.021 15.1672 105.933 15.7524 105.605 16.2842C105.197 16.9468 105.021 17.6266 104.659 18.296C104.219 19.1101 103.483 19.7434 102.969 20.5075C102.616 21.0342 101.964 21.7449 101.75 22.0788C101.309 21.9755 100.726 22.0237 100.564 22.3645C100.383 22.7466 100.345 23.3179 100.182 23.7482C100.009 24.2025 99.7661 24.7257 99.8816 25.1921C100.026 25.7687 100.497 25.6241 100.847 25.97C101.223 26.3417 101.18 27.099 100.973 27.512C101.432 27.9027 101.863 28.3261 102.338 28.6806C102.718 28.9628 102.762 28.9542 102.594 29.4224C102.495 29.6926 102.354 29.9576 102.256 30.2106C103.056 30.5875 103.423 31.0349 103.997 31.6373C104.888 30.9988 105.295 29.6444 105.888 28.7632C106.647 27.6342 107.317 26.4605 108.071 25.3246C108.426 24.7911 108.81 24.2714 109.147 23.7327C109.314 23.4642 109.457 22.8739 109.759 22.7775C110.107 22.6657 110.724 23.0168 111.034 23.108C111.746 23.3197 112.353 23.1682 113.029 22.9187C114.836 22.2526 116.643 22.2784 118.506 22.2561C118.686 22.5899 118.625 22.9927 118.717 23.3524C118.81 23.7172 118.974 23.984 119.177 24.2937C119.646 25.0131 120.337 25.2231 121.08 25.6052C121.934 26.0423 122.256 25.7256 122.882 24.9856C123.501 24.2542 123.801 23.3489 123.922 22.4351C124.042 21.5212 123.77 20.6383 123.78 19.7141C123.792 18.6643 124.248 18.3253 125.053 17.642C125.87 16.9519 126.368 16.4528 125.656 15.5476ZM105.686 19.0825C105.426 19.6573 104.9 20.1461 104.464 20.6039C104.021 21.0686 103.528 21.3026 103.699 22.0117C103.497 22.0427 103.3 22.0547 103.102 22.0874C103.223 22.0168 103.173 21.7673 103.242 21.59C103.323 21.3852 103.433 21.3302 103.583 21.2028C104.087 20.7846 104.337 20.2494 104.659 19.6832C105.014 19.0602 105.052 18.0448 105.993 18.1256C105.861 18.4285 105.826 18.7762 105.686 19.0825ZM107.786 16.1947C107.576 16.9209 106.395 17.1963 106.183 17.8468C106.149 17.377 106.254 16.9984 106.502 16.575C106.631 16.353 106.833 15.7489 107.05 15.6543C107.411 15.4942 107.881 15.8608 107.786 16.1947ZM114.998 7.27812C114.37 7.66879 114.015 8.11969 113.477 8.62911C112.55 9.50682 111.643 10.6014 110.967 11.6822C110.278 12.7836 109.654 13.713 108.49 14.3704C108.488 14.3859 108.483 14.3979 108.483 14.4134C108.445 14.4169 108.41 14.4065 108.414 14.4169C108.441 14.4031 108.464 14.3859 108.49 14.3704C108.51 14.2155 108.602 14.1054 108.671 13.9591C108.855 13.5684 109.131 13.3189 109.335 12.9316C109.562 12.4997 109.771 11.9868 110.079 11.6271C110.617 10.9989 111.095 10.1935 111.6 9.53952C112.16 8.81498 112.759 8.13002 113.458 7.54315C113.788 7.26779 114.11 6.99415 114.434 6.72051C114.641 6.54497 114.948 6.12848 115.229 6.14741C115.481 6.16462 115.65 6.52948 115.7 6.75665C115.782 7.14904 115.281 7.10257 114.998 7.27812Z" fill="white"/>
<path d="M127.921 14.8761C128.178 15.1016 128.059 15.3597 128.062 15.6609C128.08 16.9723 129.607 18.0394 130.462 18.905C130.978 19.4282 131.576 19.8757 132.126 20.3524C132.593 20.7585 133.084 20.9083 133.019 21.6259C132.964 22.2283 132.653 22.8926 132.391 23.4347C132.057 24.1266 131.753 24.8339 131.4 25.512C130.602 27.0402 130.074 29.0125 128.878 30.274C128.292 30.8919 127.726 31.4168 127.249 32.131C126.773 32.8418 126.609 33.8141 126.647 34.6591C126.678 35.3562 127.064 35.7933 127.531 36.2717C127.897 36.6469 128.331 37.251 128.779 37.5195C129.464 37.9308 130.588 37.5246 131.355 37.5281C131.772 37.5298 132.219 37.6038 132.516 37.3422C132.671 37.2062 132.79 36.9739 132.914 36.8035C133.569 35.8983 134.277 35.0206 134.86 34.0723C135.405 33.1877 135.921 32.2807 136.464 31.3858C136.695 31.0054 137.017 30.6681 137.295 30.3084C137.51 30.0296 137.67 29.355 137.941 29.1519C138.25 28.9179 138.469 28.3809 138.65 28.0556C138.917 27.5789 139.136 27.0867 139.441 26.6375C140.193 25.5257 140.884 24.3813 141.617 23.2557C142.212 22.3419 142.725 21.4401 143.358 20.5555C143.948 19.7294 144.515 18.8586 145.106 18.0514C145.667 17.2855 146.249 16.5317 146.825 15.7711C147.527 14.8434 148.063 13.8693 148.668 12.8866C149.208 12.0124 149.577 11.0125 150.168 10.1761C150.72 9.39472 151.201 8.55314 151.677 7.72361C152.287 6.65659 152.568 5.38132 153.089 4.26955C152.735 4.28676 152.361 4.36076 152.011 4.27299C152.277 3.72054 152.377 3.00977 152.306 2.43151C151.775 2.41258 151.425 2.66901 150.899 2.32825C150.403 2.00642 150.604 1.6691 150.934 1.31285C150.682 1.10805 150.373 0.774175 150.058 0.703613C149.951 1.61059 148.853 2.33513 148.099 2.71547C147.784 2.87553 147.446 2.98395 147.134 3.14745C146.698 3.37634 146.435 3.76013 146.123 4.13187C145.72 4.61031 145.646 5.18685 145.151 5.59645C144.851 5.84427 144.561 5.99572 144.315 6.30206C144.003 6.68929 143.66 7.0507 143.336 7.42416C142.363 8.53937 141.594 9.7699 140.629 10.8679C140.024 11.5546 139.543 12.2757 139.077 13.0725C138.779 13.5837 138.557 14.1395 138.246 14.6472C137.9 15.2135 137.462 15.7194 137.06 16.2392C136.1 15.9414 135.114 15.6299 134.255 15.0241C132.812 14.0053 131.826 12.3549 130.698 11.0125C130.49 10.7629 130.302 10.479 130.009 10.3241C129.685 10.1537 129.238 10.0883 128.904 9.99707C128.517 9.89209 128.193 9.84046 127.823 9.66147C127.533 9.52035 127.057 9.17271 126.731 9.22434C126.702 9.65287 126.936 9.96093 126.974 10.3499C126.859 10.0435 126.362 9.80604 126.124 9.55477C125.75 9.15894 125.371 9.19508 124.819 9.22434C124.957 10.0074 125.412 10.8335 125.868 11.5167C126.324 12.2017 126.611 12.9865 127.088 13.6611C127.354 14.0363 127.619 14.4321 127.855 14.8021C127.845 14.7608 127.964 14.9019 127.921 14.8761Z" fill="white"/>
<path d="M227.902 12.6096C227.973 12.6458 228.043 12.6767 228.118 12.7043C227.804 12.718 226.919 12.4668 227.076 12.0417C227.202 11.7009 228.233 11.5856 228.561 11.4806C229.286 11.2517 229.531 10.8387 230.1 10.3878C230.517 10.0574 231.045 9.98679 231.483 9.72003C231.96 9.42918 232.064 8.99033 232.372 8.54803C232.712 8.0627 233.078 7.80627 233.59 7.53263C234.091 7.26243 234.169 7.09894 233.607 6.92167C233.071 6.75301 233.159 6.6704 232.991 6.15926C232.736 5.38309 231.988 4.53291 233.283 4.29541C232.931 4.29541 232.595 4.30402 232.248 4.34016C230.488 4.52775 228.852 5.22303 227.109 5.54142C225.073 5.91316 223.071 6.45528 221.064 6.92339C220.28 7.10582 219.463 7.29169 218.653 7.40355C217.92 7.50509 217.173 7.5137 216.441 7.6204C215.116 7.81315 213.723 7.89404 212.392 8.15736C210.07 8.61687 207.575 8.92837 205.319 9.66668C204.355 9.98163 203.395 10.3843 202.414 10.5496C201.474 10.7079 200.552 10.8525 199.633 10.9936C198.636 11.1468 197.605 11.028 196.65 11.3516C195.971 11.5804 194.899 12.0503 194.809 12.8729C194.876 12.379 196.819 12.8626 195.859 13.5717C195.514 13.8264 195.333 13.8298 195.685 14.2979C196.014 14.7351 196.128 14.6697 196.54 14.4029C196.897 14.1723 197.116 14.1413 197.569 14.1396C197.859 14.1396 198.605 14.1361 198.457 14.5888C198.252 15.2221 196.766 14.988 196.607 15.8279C196.505 16.3631 197.216 16.2891 197.573 16.3924C197.985 16.5129 198.379 16.7142 198.729 16.9603C199.117 17.234 199.167 17.4267 199.681 17.3441C200.212 17.2598 200.983 17.1565 201.429 16.8622C201.776 16.6333 201.971 16.21 202.393 16.6282C202.681 16.9121 202.717 17.4198 203.065 17.6883C203.677 18.1599 204.596 17.6969 205.281 17.5524C205.781 17.4474 206.288 17.3424 206.76 17.1565C207.003 17.0601 207.162 16.9087 207.413 16.9827C207.957 17.1428 207.882 17.5902 207.762 17.9551C207.593 18.4645 207.432 18.9756 207.269 19.4782C207.126 19.9187 206.796 20.2956 206.669 20.7448C206.562 21.1252 206.507 21.5124 206.382 21.8893C206.079 22.8118 205.519 23.7204 205.419 24.6928C205.391 24.9579 205.379 25.3193 205.443 25.5637C204.234 25.4277 204.648 26.8148 204.634 27.5256C204.924 27.2107 205.186 26.8751 205.37 26.4689C205.753 27.2761 205.476 28.5462 205.507 29.4497C206.082 29.491 206.889 29.1778 207.425 28.973C207.643 28.8886 208.584 28.4085 208.258 29.0917C208.713 28.8353 208.71 28.4222 208.801 27.9576C208.927 27.3105 209.094 26.6513 209.308 26.0214C209.396 25.7598 209.631 24.6704 210.103 25.1265C210.437 25.4483 209.839 26.271 209.805 26.6496C210.289 26.7529 210.481 26.2159 210.639 25.87C211.025 25.025 211.46 24.1937 211.751 23.3109C212.063 22.3677 212.344 21.416 212.672 20.4815C212.915 19.7879 213.167 18.9842 213.508 18.3423C213.804 17.783 214.33 16.9018 214.837 16.4888C215.492 15.957 216.646 15.6988 217.422 15.4562C219.287 14.8693 221.332 14.4907 223.256 14.1499C224.306 13.964 225.292 13.7885 226.328 13.5338C226.835 13.4099 227.649 13.508 227.959 12.9986C227.802 13.0261 228.047 12.5459 227.902 12.6096Z" fill="white"/>
<path d="M193.43 11.6455C193.111 10.4924 192.433 9.34103 191.282 8.76966C191.323 8.7817 191.364 8.79547 191.407 8.80064C190.82 8.27917 189.623 8.88152 188.902 8.54937C188.189 8.22066 187.833 7.9212 187.059 8.32736C187.009 8.83678 187.196 8.75589 187.387 9.15172C187.515 9.41504 187.39 9.86422 187.318 10.1568C187.184 10.6972 186.982 11.3254 186.746 11.8227C186.597 12.1342 186.334 12.3855 186.268 12.7056C186.43 12.9173 186.654 12.7882 186.873 12.7022C186.503 13.394 186.549 14.2029 186.14 14.9274C185.397 16.2457 184.265 17.7189 183.096 18.7378C182.401 19.3435 181.425 19.5621 180.727 20.1696C180.17 20.655 179.78 21.1145 178.999 21.1007C179.667 20.7444 180.041 20.0492 180.682 19.612C181.782 18.8599 182.577 17.669 183.541 16.7569C184.027 16.2956 184.491 15.7587 184.901 15.2114C185.272 14.7192 185.511 13.9619 185.947 13.5351C185.103 13.9327 184.442 14.5264 183.892 15.2785C183.082 16.3868 182.161 17.533 181.142 18.483C180.648 18.9443 180.077 19.2076 179.598 19.7187C179.318 20.0165 178.694 21.3107 178.239 21.185C177.62 21.0146 177.541 20.2505 177.722 19.6981C177.884 19.2059 178.231 18.6844 178.446 18.2094C178.679 17.6983 178.975 17.1923 179.28 16.7207C179.663 16.1287 180.724 14.5591 180.43 13.8776C180.503 13.9086 180.579 13.9224 180.655 13.9155C180.305 13.7021 180.32 12.6764 180.299 12.2788C180.258 11.5198 180.455 10.945 180.77 10.2928C180.929 9.96404 181.444 8.69049 180.911 8.71459C180.668 8.72491 180.46 9.24121 180.22 9.05707C180.122 8.98134 180.141 8.34801 180.124 8.21205C180.061 7.70952 179.908 7.14158 179.553 6.76124C179.429 7.09339 179.346 7.47546 179.027 7.6751C178.717 7.86785 178.322 7.81106 177.984 7.98316C177.784 8.08642 177.693 8.27401 177.503 8.14665C177.367 8.05716 177.372 7.70952 177.36 7.577C177.319 7.09856 177.415 6.78017 177.617 6.40155C177.332 6.33443 176.724 6.30861 176.57 6.43941C175.646 7.22419 175.612 8.81785 174.905 9.80915C174.746 10.0312 174.546 10.1947 174.388 10.4201C174.176 10.723 174.298 10.9485 173.812 10.8572C173.324 10.7643 172.824 10.1516 172.396 9.86422C171.779 9.44774 171.162 8.9125 170.424 8.76966C169.483 8.58723 168.54 8.39448 167.619 8.06921C165.569 7.34294 163.4 6.97981 161.19 7.09511C160.066 7.15363 159.118 7.35843 158.04 7.6751C157.568 7.8145 157.101 7.96767 156.632 8.10879C156.023 8.29122 155.29 8.32736 154.709 8.57346C153.93 8.9039 153.409 9.77645 152.978 10.4614C152.744 10.8331 152.527 11.26 152.235 11.5921C151.875 12 151.534 12.2513 151.41 12.8226C151.184 13.8638 151.704 14.7863 151.289 15.7931C150.856 16.8378 149.973 17.6174 149.535 18.6465C149.189 19.4589 149.561 20.5156 149.525 21.3606C149.458 22.9938 149.496 24.3001 150.303 25.7646C150.732 26.5425 151.16 27.1931 151.708 27.8798C152.054 28.3152 152.284 28.8263 152.68 29.2032C153.209 29.704 153.966 30.1412 154.611 30.506C155.318 30.9087 156.082 31.3166 156.842 31.5989C158.902 32.3613 161.083 32.468 163.159 31.9499C165.978 31.2461 167.893 29.3254 169.996 26.9625C170.553 26.336 171.569 25.1313 172.439 24.4894C172.452 24.5376 172.469 24.5943 172.452 24.5117C173.265 24.9334 173.074 25.7922 173.272 26.5924C173.762 28.5664 175.162 29.871 177.251 29.8985C179.049 29.9209 180.655 29.3547 182.33 28.8435C182.989 28.6422 184.461 28.3393 184.468 27.4942C184.537 27.4736 184.692 27.4736 184.761 27.496C184.834 27.6732 184.885 27.8608 184.944 28.0467C185.109 28.5768 185.146 28.9347 185.642 29.217C186.034 29.439 186.43 29.7212 186.835 29.9054C187.687 30.2926 188.839 30.0999 189.459 29.4321C190.17 28.6697 190.271 27.6904 190.466 26.6991C190.773 25.1261 191.121 24.1934 191.299 23.0265C191.463 21.9474 191.845 20.9286 192.088 19.8753C192.347 18.7498 192.519 17.5761 192.878 16.4626C193.357 14.9842 193.845 13.1462 193.43 11.6455ZM152.582 13.0584C152.406 13.1961 152.672 14.3784 151.992 14.1771C151.992 13.8759 152.116 12.8467 152.582 13.0584C152.587 13.0533 152.592 13.0481 152.599 13.0446L152.642 13.0877C152.62 13.0756 152.601 13.0687 152.582 13.0584ZM154.79 9.80743H154.747C154.811 9.58198 155.023 9.25154 155.218 9.09665C155.551 8.82989 155.79 9.01576 156.189 8.98306C156.104 9.22228 155.963 9.551 155.744 9.70933C155.423 9.94167 155.163 9.77989 154.79 9.80743ZM164.486 21.5895C163.592 22.3519 162.731 23.2933 161.654 23.8096C160.685 24.2725 159.673 24.4274 158.604 24.3792C157.644 24.3362 156.594 24.0746 155.437 23.6271C155.311 23.8113 155.368 23.7184 155.427 23.6237C155.43 23.6254 155.433 23.6271 155.437 23.6271C155.452 23.6048 155.47 23.579 155.492 23.548C155.501 23.5497 155.437 23.5549 155.447 23.5531C155.456 22.3364 155.994 21.691 156.589 20.6601C157.056 19.8495 157.97 18.6397 158.692 18.0356C159.769 17.1338 160.518 16.4161 161.849 15.9359C162.974 15.5298 164.885 15.2321 166.057 15.411C167.081 15.5659 167.898 15.6744 169.022 16.5331C168.135 18.6706 166.178 20.149 164.486 21.5895ZM191.04 8.66984C191.107 8.70942 191.178 8.73868 191.251 8.76277C191.206 8.76622 191.011 8.67328 191.04 8.66984Z" fill="white"/>
<path d="M160.766 23.216C161.486 23.3674 162.622 22.3864 163.067 21.7893C163.233 21.5655 163.367 21.3125 163.491 21.063C162.778 21.5896 161.997 21.9682 161.317 22.5517C161.078 22.7582 160.964 22.901 160.766 23.216Z" fill="white"/>
<path d="M9.78396 32.2361C9.90809 32.3445 10.0408 32.4512 10.1995 32.4942C10.4288 32.5562 10.6701 32.477 10.9046 32.4391C12.2925 32.2189 13.5303 33.4614 14.9354 33.4958C15.063 33.4993 15.1923 33.4907 15.3095 33.4459C15.5664 33.3496 15.9492 32.9864 16.0923 32.7541C17.3008 30.7818 18.3904 29.1623 19.6886 27.2486C21.3903 24.7428 23.1109 22.0787 24.9608 19.6796C25.8331 20.38 25.8383 21.5933 25.6831 22.6999C25.459 24.3022 25.3383 26.0748 25.728 27.6461C25.9176 28.4103 26.8003 29.6425 27.1227 30.3602C27.7537 31.7662 28.0054 32.5768 29.0968 33.6679C29.4812 34.0517 29.9019 34.4183 30.4105 34.6093C31.2811 34.9346 32.2707 34.6885 33.0879 34.2462C34.1189 33.6903 34.5672 32.5717 35.274 31.558C36.0343 30.4686 36.4722 30.8403 37.9118 27.968C38.998 25.7995 39.591 24.1387 40.8255 22.194C41.1117 22.3661 41.3065 22.6793 41.3358 23.0097C41.6823 22.1355 41.6375 21.1149 41.2134 20.275C41.8099 19.1684 43.0736 18.5076 43.8615 17.5971C43.796 17.7503 43.7236 17.9052 43.6305 18.0549C43.3598 18.4972 42.3495 19.7501 42.7616 20.3387C42.7219 20.411 42.9047 20.3473 42.8271 20.3869C42.5754 20.948 42.5892 21.571 42.4668 22.163C42.4219 22.385 42.4254 22.7963 42.2668 22.9805C42.0547 23.2266 41.7547 23.0734 41.5082 23.1801C42.2323 23.6878 42.153 24.7118 42.2702 25.4708C42.3943 26.2642 42.4271 27.0954 42.5443 27.8905C42.7943 29.5771 43.7288 31.2258 45.2442 32.1775C47.3079 33.4718 50.1612 33.0363 52.4093 32.5149C53.5679 32.2464 54.873 31.8333 55.8919 31.2052C57.1901 30.4032 58.3608 29.4274 59.5435 28.4567C60.1296 27.9766 60.3934 27.3054 60.9313 26.7719C61.6347 26.0731 62.3209 25.4467 62.8502 24.6171C63.3329 23.8582 64.3294 23.2111 64.5725 22.3437C64.7915 21.5658 65.007 20.781 65.2432 20.01C65.3345 19.714 65.4311 19.4214 65.4535 19.1134C65.4276 19.1942 65.4001 19.2734 65.3673 19.3526C65.3518 18.8793 65.8673 18.1324 65.9759 17.6763C66.0828 17.222 66.1017 16.7573 66.1276 16.2806C66.1776 15.3616 66.0224 14.5923 65.6483 13.8058C65.3121 13.0984 64.8277 12.4238 64.4311 11.7526C63.9381 10.9179 63.3708 10.1899 62.7157 9.47914C62.4312 9.16936 62.2037 8.76665 61.9226 8.47235C61.6192 8.15569 61.2106 8.20215 60.852 7.98359C60.4279 7.72371 60.1486 7.28486 59.7641 6.99573C59.328 6.66529 58.7538 6.37961 58.2625 6.14899C57.5453 5.81339 56.966 5.70497 56.1833 5.67055C55.5523 5.64301 55.0213 5.39863 54.4523 5.1422C53.8351 4.86512 53.3903 4.43142 52.6955 4.43314C52.5128 4.43314 51.8111 4.45724 51.737 4.71022C51.6749 4.92363 52.1025 5.2816 52.1387 5.51222C52.2387 6.14555 51.1784 6.55343 50.7629 6.92344C50.1612 7.4604 49.6233 8.14536 49.1078 8.74599C48.0216 10.0109 47.2562 11.7044 46.3476 13.107C46.1993 13.3359 46.0597 13.5648 45.939 13.8006C45.8769 13.8144 45.8183 13.8144 45.7614 13.8058C45.7287 13.5941 45.77 13.3342 45.8476 13.1346C46.2648 12.0521 46.6803 10.9713 47.0976 9.88874C46.9079 10.0385 46.7183 10.1865 46.5286 10.3362C46.1924 9.40686 46.3562 8.31402 46.951 7.52408C47.07 7.36574 47.2113 7.20225 47.2148 7.00605C47.2217 6.64464 46.7769 6.42091 46.72 6.06294C46.6286 5.49845 47.5303 4.96493 47.1838 4.50887C47.0579 4.34537 46.82 4.30751 46.6821 4.15262C46.4769 3.922 46.5631 3.50896 46.1148 3.42807C45.858 3.3816 45.5942 3.48142 45.4114 3.66729C43.1788 5.94763 41.6478 8.90777 40.0721 11.6906C39.3221 13.0175 38.7825 14.3685 37.7222 15.4597C37.3084 15.8847 36.8602 16.2823 36.5015 16.7539C36.0774 17.3115 35.7895 17.9568 35.4775 18.585C34.5775 20.4041 33.381 22.1406 32.0794 23.7067C32.0276 23.7687 31.9276 23.7274 31.9328 23.6465C32.0225 21.7155 31.7259 20.1718 31.6794 18.3923C31.6363 16.7797 31.8639 14.9141 31.919 13.126C31.9397 12.441 31.6225 10.6752 31.4397 10.0144C31.2449 9.30876 30.9277 8.9181 30.4812 8.33811C29.9312 7.62562 29.4416 7.05596 28.8019 6.42263C28.6002 6.22299 28.1485 5.97689 27.8658 5.93558C27.1055 5.82716 26.7348 6.88558 26.0348 7.19881C25.8418 7.28486 25.6262 7.31067 25.4245 7.37091C25.0021 7.17299 24.5815 6.97507 24.1591 6.77716C24.0643 6.73241 23.9591 6.68594 23.8556 6.71004C23.7867 6.72553 23.7298 6.772 23.6763 6.81502C23.5781 6.89419 23.4798 6.97335 23.3815 7.05252C23.2936 7.12308 23.204 7.19536 23.1436 7.2883C23.0074 7.49482 23.0316 7.76502 23.0591 8.01112C23.3902 7.72543 23.8746 7.5258 24.2763 7.49482C24.5229 7.47589 24.7935 7.48621 25.0039 7.5998C24.7953 7.79255 24.6556 8.06792 24.4832 8.30369C21.1299 12.8833 18.7714 16.6265 15.6147 20.7827C14.1251 22.743 12.6097 25.0939 11.1201 27.0541C10.2684 28.1745 9.38398 29.343 8.10474 29.9351C8.48748 30.8145 9.06503 31.6045 9.78396 32.2361ZM52.5404 6.18513L52.4197 6.22471C52.2438 6.11973 52.268 6.52245 52.3335 6.69627C52.1231 6.80642 51.9421 6.91828 51.7077 6.81674C51.4663 6.40714 52.2766 6.18341 52.5404 6.18513ZM47.5872 22.4883C47.9596 21.762 48.4113 21.0151 48.9268 20.3835C49.7164 19.418 50.6819 18.5747 51.4904 17.6264C51.7542 17.3149 52.0249 17 52.2525 16.6747C52.3335 16.5594 52.3421 16.4372 52.4197 16.358C52.6973 15.7626 53.2921 15.303 53.6989 14.785C54.0765 14.3031 54.4403 13.7696 54.9765 13.4357C55.2868 13.243 55.6799 13.0434 56.0505 13.0933C56.1092 13.5476 55.8609 13.7404 56.4764 13.5459C56.7953 13.4461 57.1643 13.3032 57.4522 13.1569C57.1557 12.9504 56.6919 12.8162 56.5798 12.4565C57.678 12.3102 58.3418 13.1742 58.9021 14.014C59.1418 14.372 59.3314 14.6422 59.6572 14.9261C59.8745 15.1155 60.1141 15.2497 60.2451 15.5216C60.74 16.5542 59.5417 17.3097 59.2521 18.2064C59.0331 18.8862 58.9228 19.7088 58.6107 20.325C58.2315 21.0701 57.2281 21.497 56.6557 22.1062C55.4368 23.4056 53.9713 24.3349 52.3611 25.1558C52.1335 25.2729 51.4853 25.6498 51.2215 25.5775C50.7284 25.4398 51.3163 24.9132 51.5197 24.7187C52.0783 24.1886 52.68 23.7429 53.311 23.3023C53.58 23.1147 54.2161 22.7671 54.2524 22.4297C53.7851 22.3196 53.4662 22.4969 53.099 22.8135C52.6662 23.1887 52.2042 23.4933 51.7404 23.8289C50.8974 24.4416 50.225 24.951 49.2199 25.3056C48.6389 25.5104 47.3441 25.8563 46.7838 25.4467C46.2114 25.025 47.3372 22.9753 47.5872 22.4883ZM44.7132 14.8298C44.8287 14.594 45.1028 14.4391 45.3563 14.415C45.6218 14.532 45.6907 14.7781 45.5994 15.1292C45.458 15.6662 44.9339 15.9312 44.5649 16.2995C44.5391 16.3253 44.5184 16.3529 44.4942 16.3804C44.5011 16.3443 44.5132 16.3098 44.5184 16.2737C44.5908 15.7901 44.496 15.2686 44.7132 14.8298Z" fill="white"/>
<path d="M34.558 16.5489C34.6459 16.3527 35.2597 15.0241 35.4666 15.0396C35.2735 15.0258 35.0821 15.0104 34.889 14.9966C34.8338 15.4045 34.5839 15.7555 34.389 16.1187C34.1322 16.5988 33.8374 18.1529 34.558 16.5489Z" fill="white"/>
<path d="M38.1444 9.79457C38.3961 9.63968 38.5582 9.35227 38.5634 9.05798L38.4617 8.98053C38.5082 8.98225 38.4737 8.90309 38.4272 8.8962C38.2944 8.87727 38.172 8.98569 38.1272 9.11133C38.0824 9.23696 38.0979 9.37464 38.1134 9.50716C38.122 9.60354 38.1324 9.69991 38.1444 9.79457Z" fill="white"/>
<path d="M42.3065 3.43485C42.8099 2.96502 43.6168 2.7258 44.196 3.07344C44.1943 3.07344 44.1926 3.07516 44.1909 3.07516L44.2064 3.08377C44.184 3.10098 44.165 3.12507 44.1581 3.15433C44.1133 3.31438 43.9926 3.49165 44.1478 3.55188C44.3029 3.61212 44.7253 3.58286 44.8908 3.56221C44.965 3.5536 45.0477 3.53811 45.0908 3.4796C45.1563 3.39011 45.0891 3.26103 45.0063 3.18703C44.8046 3.00632 44.4995 2.95641 44.2495 3.05451C44.0788 2.67589 43.8357 2.27317 43.4306 2.23531C43.1616 2.20949 42.9099 2.36094 42.6944 2.52444C41.5789 3.36945 40.2186 5.55169 39.8325 6.90441C40.5514 5.94753 40.9376 5.54137 41.1152 5.23847C41.4824 4.61547 41.7772 3.9305 42.3065 3.43485Z" fill="white"/>
<path d="M11.9678 23.3853C11.7299 23.5505 11.5058 23.4661 11.2731 23.5539C11.0524 23.6365 10.9576 23.8 10.8024 24.0186C10.4679 24.4936 10.1524 24.9824 9.86106 25.4849C9.29902 26.4504 8.81973 27.464 8.42837 28.5104C8.36631 28.6756 8.30769 28.8632 8.38355 29.0216C9.33867 27.0045 10.5455 25.1045 11.9678 23.3853Z" fill="white"/>
<path d="M14.8909 19.2116C15.0771 18.8278 15.3116 18.4664 15.5892 18.1411C15.4633 18.0585 15.2995 18.1549 15.1875 18.2547C14.8634 18.5438 14.5892 18.8863 14.3789 19.2666C14.5496 19.2684 14.7203 19.2701 14.8909 19.2718V19.2116Z" fill="white"/>
<path d="M15.8629 17.7538C15.9922 17.7521 16.256 17.4216 16.3405 17.3321C16.5301 17.1273 16.6922 16.9002 16.8525 16.673C17.3887 15.9157 17.9318 15.1482 18.2524 14.2773C17.8835 14.3892 17.6352 14.7231 17.4128 15.0363C16.8628 15.809 16.3146 16.5818 15.7646 17.3545C15.6388 17.5335 15.6043 17.7572 15.8629 17.7538Z" fill="white"/>
<path d="M19.2904 12.4994C19.2904 12.5751 19.2904 12.6509 19.2904 12.7266L19.2887 12.4443C18.9353 12.7989 18.6956 13.267 18.6163 13.7609C19.0646 13.5269 19.3439 13.0037 19.2904 12.4994Z" fill="white"/>
<path d="M20.7874 10.4514C20.0495 9.78877 19.8943 11.7765 19.8047 12.0416C19.9357 11.6543 21.3667 10.9711 20.7874 10.4514Z" fill="white"/>
<path d="M21.7953 9.29248C21.4953 9.45942 21.2574 9.73478 21.1367 10.0566C21.1781 10.0549 21.2177 10.0463 21.2557 10.036C21.4574 9.80534 21.6384 9.55752 21.7953 9.29248Z" fill="white"/>
<path d="M21.2765 10.0295C21.3558 10.002 21.4299 9.95722 21.4868 9.89526L21.2765 10.0295Z" fill="white"/>
<path d="M21.2749 10.0298C21.268 10.0315 21.2594 10.0349 21.2525 10.0384C21.2491 10.0418 21.2456 10.047 21.2422 10.0522L21.2749 10.0298Z" fill="white"/>
<path d="M22.9884 8.07302C23.0091 8.05237 23.0332 8.03344 23.0556 8.01451C23.0487 7.9973 23.0212 8.02655 22.9884 8.07302Z" fill="white"/>
<path d="M22.8436 8.23206C22.4609 8.22002 22.1109 8.59176 22.1471 8.97382C22.2764 8.9721 22.4092 8.96866 22.5299 8.92047C22.6505 8.87228 22.7574 8.76902 22.7712 8.63994C22.7833 8.52292 22.7247 8.38696 22.8005 8.29918C22.8126 8.34221 22.9143 8.17183 22.985 8.07373C22.9333 8.12364 22.885 8.17699 22.8436 8.23206Z" fill="white"/>
<path d="M47.5407 9.80269C47.5958 9.73041 47.601 9.63403 47.6045 9.54454C47.6096 9.39653 47.6148 9.24681 47.62 9.0988L47.67 8.9353C47.4424 9.11945 47.2976 9.40342 47.2821 9.69599C47.2803 9.74074 47.2803 9.78892 47.3079 9.82679C47.3614 9.89735 47.4855 9.87325 47.5407 9.80269Z" fill="white"/>
<path d="M48.4926 8.37792C48.6357 8.1387 48.6288 7.84612 48.7822 7.5415C48.2495 7.81514 47.8271 8.46397 47.8702 9.04395C48.0909 8.9011 48.3529 8.60853 48.4926 8.37792Z" fill="white"/>
<path d="M55.654 13.9297C55.3937 14.076 53.8438 14.8435 53.899 15.0397C54.1265 14.8108 54.6248 14.7833 54.9213 14.6456C55.2972 14.4735 55.4765 14.2842 55.654 13.9297Z" fill="white"/>
<path d="M56.554 20.5644C56.9419 20.172 57.0402 19.8742 57.1281 19.3545C56.8557 19.4595 56.4729 19.709 56.4143 19.7899C56.0074 19.9603 55.5126 21.0979 55.5402 21.5023C55.9333 21.3612 56.2678 20.8552 56.554 20.5644Z" fill="white"/>
<path d="M74.0014 18.6316C73.9651 18.6488 74.0307 18.7091 74.0496 18.6678C74.0686 18.6265 74.0393 18.5783 74.0117 18.5456C73.6462 18.1067 73.26 17.6937 72.8531 17.3116C73.0738 16.8211 73.5583 16.5268 74.0151 16.606C73.9617 16.3909 73.891 16.1499 73.7203 16.0587C73.5479 15.9658 73.3514 16.069 73.1635 16.1069C72.979 16.1448 72.779 16.1138 72.6273 15.9813C72.4756 15.8487 72.5376 15.5648 72.5376 15.3393C72.5376 15.0915 72.7721 15.2584 72.9462 15.3393C72.998 15.2825 72.9928 14.9056 72.9462 14.8454C72.8997 14.7852 72.748 14.7852 72.6825 14.7611C72.4514 14.6733 72.3601 14.6871 72.129 14.5993C72.3342 14.3515 72.3342 14.1054 72.4359 13.9814C48.1165 13.9814 26.659 17.9381 3.57395 18.6901C3.30845 19.1944 2.80675 19.4715 2.55332 19.9861C2.38436 20.3285 2.34298 20.7467 2.17575 21.0909C1.70164 22.0822 0.393083 22.1631 0 23.2061C24.0867 23.3661 43.315 17.8141 74.0014 18.6316Z" fill="#E40521"/>
</svg>
