<svg width="14" height="14" viewBox="0 0 14 14" fill="none" xmlns="http://www.w3.org/2000/svg">
<path d="M11.6666 13.4167H10.5V12.2501C10.5 11.786 10.3156 11.3408 9.98742 11.0126C9.65923 10.6845 9.21411 10.5001 8.74998 10.5001H5.24998C4.78585 10.5001 4.34073 10.6845 4.01254 11.0126C3.68435 11.3408 3.49998 11.786 3.49998 12.2501V13.4167H2.33331V12.2501C2.33331 11.4765 2.6406 10.7347 3.18758 10.1877C3.73457 9.64071 4.47643 9.33341 5.24998 9.33341H8.74998C9.52353 9.33341 10.2654 9.64071 10.8124 10.1877C11.3594 10.7347 11.6666 11.4765 11.6666 12.2501V13.4167ZM6.99998 8.16675C6.54035 8.16675 6.08523 8.07622 5.66059 7.90033C5.23595 7.72443 4.85011 7.46663 4.52511 7.14162C4.2001 6.81662 3.94229 6.43078 3.7664 6.00614C3.59051 5.5815 3.49998 5.12637 3.49998 4.66675C3.49998 4.20712 3.59051 3.752 3.7664 3.32736C3.94229 2.90272 4.2001 2.51688 4.52511 2.19187C4.85011 1.86687 5.23595 1.60906 5.66059 1.43317C6.08523 1.25728 6.54035 1.16675 6.99998 1.16675C7.92824 1.16675 8.81848 1.5355 9.47485 2.19187C10.1312 2.84825 10.5 3.73849 10.5 4.66675C10.5 5.59501 10.1312 6.48524 9.47485 7.14162C8.81848 7.798 7.92824 8.16675 6.99998 8.16675ZM6.99998 7.00008C7.61882 7.00008 8.21231 6.75425 8.6499 6.31666C9.08748 5.87908 9.33331 5.28559 9.33331 4.66675C9.33331 4.04791 9.08748 3.45442 8.6499 3.01683C8.21231 2.57925 7.61882 2.33341 6.99998 2.33341C6.38114 2.33341 5.78765 2.57925 5.35006 3.01683C4.91248 3.45442 4.66665 4.04791 4.66665 4.66675C4.66665 5.28559 4.91248 5.87908 5.35006 6.31666C5.78765 6.75425 6.38114 7.00008 6.99998 7.00008Z" fill="#F7F5F9"/>
</svg>
