<svg width="221" height="221" viewBox="0 0 221 221" fill="none" xmlns="http://www.w3.org/2000/svg">
<circle cx="110.5" cy="110.5" r="110" fill="#32D99C" fill-opacity="0.1" stroke="#32D99C"/>
<path d="M80.4072 182.587L86.1183 177.395C86.4521 177.154 86.7288 176.843 86.9287 176.483C87.1286 176.123 87.2468 175.723 87.2749 175.312C87.2815 175.108 87.2435 174.905 87.1638 174.717C87.084 174.529 86.9643 174.361 86.8129 174.224C86.6616 174.087 86.4823 173.985 86.2874 173.924C86.0926 173.864 85.8868 173.846 85.6845 173.873C85.4689 173.87 85.255 173.911 85.0555 173.993C84.8561 174.075 84.6751 174.196 84.5236 174.349C84.3721 174.503 84.253 174.685 84.1736 174.885C84.0941 175.086 84.0559 175.3 84.0612 175.516H80.4598C80.4598 173.018 82.2079 170.705 85.7568 170.705C89.0428 170.705 91.1327 172.401 91.1327 175.102C91.1327 177.185 90.0023 178.473 88.5039 179.702L86.2169 181.582H91.2576V184.795H80.4072V182.587Z" fill="#32D99C"/>
<path d="M92.3936 177.916C92.3936 173.9 95.3247 170.687 99.7739 170.687C104.223 170.687 107.154 173.9 107.154 177.916C107.154 181.931 104.223 185.145 99.7739 185.145C95.3247 185.145 92.3936 181.931 92.3936 177.916ZM103.454 177.916C103.435 177.192 103.203 176.491 102.787 175.899C102.371 175.306 101.789 174.85 101.115 174.587C100.441 174.323 99.7047 174.264 98.9974 174.417C98.2901 174.57 97.6436 174.928 97.1387 175.447C96.6338 175.965 96.2929 176.621 96.1587 177.332C96.0245 178.043 96.1029 178.778 96.3842 179.444C96.6654 180.111 97.1369 180.68 97.7398 181.081C98.3427 181.481 99.0502 181.694 99.7739 181.695C100.27 181.709 100.763 181.62 101.222 181.434C101.682 181.248 102.098 180.969 102.444 180.613C102.79 180.258 103.058 179.835 103.232 179.371C103.406 178.906 103.482 178.411 103.454 177.916Z" fill="#32D99C"/>
<path d="M108.265 182.587L113.97 177.395C114.304 177.155 114.582 176.843 114.783 176.483C114.984 176.123 115.104 175.723 115.133 175.312C115.14 175.107 115.101 174.904 115.021 174.715C114.941 174.527 114.821 174.358 114.669 174.221C114.517 174.084 114.336 173.982 114.141 173.922C113.945 173.862 113.739 173.845 113.536 173.873C113.32 173.87 113.106 173.911 112.907 173.993C112.707 174.075 112.526 174.196 112.375 174.349C112.223 174.503 112.104 174.685 112.025 174.885C111.945 175.086 111.907 175.3 111.913 175.516H108.311C108.311 173.018 110.059 170.705 113.615 170.705C116.901 170.705 118.991 172.401 118.991 175.102C118.991 177.185 117.854 178.473 116.362 179.702L114.075 181.582H119.115V184.795H108.265V182.587Z" fill="#32D99C"/>
<path d="M120.245 177.916C120.245 173.9 123.176 170.687 127.632 170.687C132.088 170.687 135.012 173.9 135.012 177.916C135.012 181.931 132.081 185.145 127.632 185.145C123.183 185.145 120.245 181.931 120.245 177.916ZM131.306 177.916C131.286 177.192 131.054 176.49 130.638 175.898C130.221 175.306 129.64 174.849 128.965 174.586C128.291 174.323 127.554 174.264 126.847 174.418C126.139 174.571 125.493 174.93 124.988 175.449C124.483 175.968 124.143 176.624 124.01 177.336C123.876 178.047 123.955 178.782 124.238 179.449C124.52 180.116 124.992 180.684 125.596 181.084C126.2 181.483 126.908 181.696 127.632 181.695C128.127 181.709 128.62 181.62 129.08 181.434C129.539 181.248 129.954 180.968 130.3 180.613C130.645 180.258 130.913 179.834 131.086 179.37C131.259 178.906 131.334 178.41 131.306 177.916Z" fill="#32D99C"/>
<path d="M107.851 86.085C100.364 86.085 93.0454 88.3051 86.8203 92.4646C80.5951 96.6241 75.7432 102.536 72.8781 109.453C70.013 116.37 69.2633 123.982 70.724 131.325C72.1846 138.668 75.7899 145.413 81.0839 150.707C86.378 156.001 93.123 159.606 100.466 161.067C107.809 162.527 115.42 161.778 122.337 158.913C129.255 156.047 135.167 151.196 139.326 144.97C143.486 138.745 145.706 131.426 145.706 123.94C145.706 113.9 141.717 104.271 134.618 97.1723C127.519 90.0732 117.891 86.085 107.851 86.085ZM107.851 157.562C101.201 157.562 94.7008 155.59 89.1717 151.895C83.6425 148.201 79.3331 142.95 76.7883 136.806C74.2435 130.663 73.5777 123.902 74.875 117.38C76.1723 110.858 79.3745 104.867 84.0767 100.165C88.7788 95.4629 94.7697 92.2607 101.292 90.9633C107.814 89.666 114.574 90.3319 120.718 92.8766C126.861 95.4214 132.113 99.7309 135.807 105.26C139.501 110.789 141.473 117.29 141.473 123.94C141.473 132.857 137.931 141.409 131.626 147.714C125.32 154.019 116.768 157.562 107.851 157.562ZM99.4259 126.509C99.4324 127.427 99.1662 128.326 98.6611 129.092C98.1559 129.858 97.4346 130.457 96.5886 130.813C95.7426 131.169 94.81 131.265 93.9091 131.09C93.0082 130.915 92.1795 130.477 91.5283 129.83C90.877 129.183 90.4324 128.358 90.251 127.458C90.0695 126.558 90.1594 125.625 90.509 124.777C90.8587 123.928 91.4526 123.203 92.2152 122.692C92.9778 122.181 93.8749 121.909 94.7927 121.909C96.0158 121.909 97.1893 122.392 98.0573 123.254C98.9253 124.116 99.4172 125.286 99.4259 126.509ZM125.543 126.509C125.543 127.419 125.273 128.308 124.768 129.065C124.262 129.822 123.544 130.411 122.703 130.759C121.862 131.108 120.937 131.199 120.045 131.021C119.153 130.844 118.333 130.406 117.69 129.762C117.046 129.119 116.608 128.299 116.431 127.407C116.253 126.514 116.344 125.589 116.692 124.749C117.041 123.908 117.63 123.19 118.387 122.684C119.143 122.179 120.033 121.909 120.943 121.909C122.16 121.917 123.325 122.405 124.186 123.266C125.047 124.127 125.534 125.292 125.543 126.509ZM129.71 116.868L133.981 112.222H124.511C119.603 108.879 113.802 107.092 107.864 107.092C101.926 107.092 96.1256 108.879 91.2175 112.222H81.721L85.9928 116.868C84.7193 118.026 83.6871 119.423 82.9557 120.981C82.2242 122.539 81.8078 124.226 81.7305 125.945C81.6532 127.664 81.9165 129.382 82.5052 130.999C83.0939 132.616 83.9964 134.101 85.1609 135.368C86.3254 136.635 87.7288 137.659 89.2906 138.382C90.8523 139.105 92.5415 139.512 94.2611 139.58C95.9807 139.648 97.6967 139.375 99.3105 138.777C100.924 138.18 102.404 137.269 103.665 136.098L107.851 140.652L112.038 136.104C114.588 138.448 117.966 139.682 121.427 139.535C124.887 139.389 128.148 137.873 130.492 135.322C132.835 132.771 134.069 129.394 133.923 125.933C133.776 122.472 132.26 119.212 129.71 116.868ZM94.7927 135.362C93.0441 135.363 91.3345 134.846 89.88 133.875C88.4255 132.905 87.2916 131.525 86.6215 129.91C85.9515 128.294 85.7755 126.517 86.1158 124.802C86.4562 123.087 87.2975 121.511 88.5334 120.274C89.7694 119.037 91.3444 118.195 93.0592 117.853C94.774 117.512 96.5517 117.686 98.1672 118.355C99.7828 119.024 101.164 120.157 102.135 121.611C103.107 123.065 103.625 124.774 103.625 126.522C103.622 128.863 102.69 131.107 101.034 132.762C99.3782 134.416 97.1336 135.347 94.7927 135.348V135.362ZM107.851 126.253C107.851 120.437 103.619 115.449 98.0458 113.313C101.153 112.02 104.486 111.354 107.851 111.354C111.217 111.354 114.549 112.02 117.657 113.313C112.084 115.449 107.851 120.437 107.851 126.253ZM120.91 135.348C119.161 135.35 117.452 134.832 115.997 133.862C114.543 132.891 113.409 131.511 112.739 129.896C112.069 128.281 111.893 126.504 112.233 124.789C112.573 123.074 113.415 121.498 114.65 120.261C115.886 119.024 117.461 118.182 119.176 117.84C120.891 117.499 122.669 117.673 124.284 118.342C125.9 119.011 127.281 120.144 128.252 121.598C129.224 123.051 129.742 124.761 129.742 126.509C129.742 128.852 128.812 131.1 127.156 132.757C125.499 134.415 123.253 135.347 120.91 135.348Z" fill="#32D99C"/>
<path d="M86.821 165.799C86.821 165.799 82.2206 162.27 73.9728 161.297C68.9615 160.776 63.9219 161.972 59.6787 164.688C64.1447 166.329 68.8068 167.377 73.5456 167.803C81.938 168.651 86.821 165.799 86.821 165.799Z" fill="#32D99C"/>
<path d="M73.9334 158.548C73.9334 158.548 69.8062 154.296 62.1038 151.365C57.2619 149.619 52.0343 149.233 46.9883 150.248C50.7981 153.535 55.1679 156.11 59.8891 157.851C68.0843 160.973 73.9334 158.548 73.9334 158.548Z" fill="#32D99C"/>
<path d="M61.6634 148.474C61.6634 148.474 59.2581 142.599 52.8636 136.697C48.8081 133.084 43.8185 130.684 38.4644 129.771C40.9117 134.526 44.2004 138.799 48.1712 142.382C54.9797 148.672 61.6634 148.474 61.6634 148.474Z" fill="#32D99C"/>
<path d="M59.259 137.202C59.259 137.202 58.4638 130.886 53.8371 123.513C50.8802 118.974 46.6992 115.365 41.7775 113.103C42.9016 118.342 44.9609 123.335 47.8566 127.843C52.7856 135.69 59.259 137.202 59.259 137.202Z" fill="#32D99C"/>
<path d="M59.5605 122.126C59.5605 122.126 59.3436 115.653 55.4595 107.779C52.9979 102.946 49.2178 98.9081 44.5566 96.1338C45.1931 101.526 46.7702 106.764 49.2162 111.611C53.3499 119.99 59.5605 122.126 59.5605 122.126Z" fill="#32D99C"/>
<path d="M77.9025 154.262C76.2055 150.592 73.7897 147.301 70.7982 144.581C67.5113 141.602 63.4532 139.607 59.0869 138.824C61.052 142.725 63.7059 146.238 66.9207 149.195C72.4412 154.374 77.9025 154.262 77.9025 154.262Z" fill="#32D99C"/>
<path d="M90.9619 161.432C88.7502 159.494 86.202 157.977 83.4436 156.957C80.421 155.822 77.1568 155.487 73.9668 155.984C76.4238 158.013 79.1996 159.62 82.1818 160.742C87.3605 162.747 90.9619 161.432 90.9619 161.432Z" fill="#32D99C"/>
<path d="M103.645 164.008C101.432 163.228 99.0884 162.887 96.7448 163.002C94.1622 163.127 91.6627 163.954 89.5156 165.395C91.938 166.161 94.4762 166.494 97.0142 166.38C101.444 166.229 103.645 164.008 103.645 164.008Z" fill="#32D99C"/>
<path d="M72.1846 142.618C71.2758 138.672 69.589 134.947 67.2228 131.662C64.6328 128.074 61.0808 125.293 56.9771 123.638C58.0985 127.867 59.9706 131.86 62.5041 135.428C66.8482 141.638 72.1846 142.618 72.1846 142.618Z" fill="#32D99C"/>
<path d="M67.1049 127.004C67.6735 122.942 67.4503 118.809 66.4477 114.833C65.3632 110.539 63.0846 106.64 59.8758 103.588C59.4109 107.989 59.7201 112.437 60.7893 116.732C62.5045 124.184 67.1049 127.004 67.1049 127.004Z" fill="#32D99C"/>
<path d="M128.915 165.799C128.915 165.799 133.515 162.27 141.763 161.297C146.774 160.776 151.814 161.972 156.057 164.688C151.58 166.332 146.907 167.379 142.157 167.803C133.765 168.651 128.915 165.799 128.915 165.799Z" fill="#32D99C"/>
<path d="M141.769 158.548C141.769 158.548 145.896 154.296 153.598 151.365C158.44 149.619 163.668 149.233 168.714 150.248C164.908 153.534 160.543 156.109 155.826 157.851C147.618 160.973 141.769 158.548 141.769 158.548Z" fill="#32D99C"/>
<path d="M154.04 148.474C154.04 148.474 156.445 142.599 162.839 136.697C166.895 133.084 171.884 130.684 177.239 129.771C174.791 134.526 171.503 138.799 167.532 142.382C160.723 148.672 154.04 148.474 154.04 148.474Z" fill="#32D99C"/>
<path d="M156.444 137.202C156.444 137.202 157.24 130.886 161.866 123.513C164.823 118.974 169.004 115.365 173.926 113.103C172.802 118.342 170.742 123.335 167.847 127.843C162.918 135.69 156.444 137.202 156.444 137.202Z" fill="#32D99C"/>
<path d="M156.142 122.126C156.142 122.126 156.359 115.653 160.243 107.779C162.705 102.946 166.485 98.9081 171.146 96.1338C170.509 101.526 168.932 106.764 166.486 111.611C162.353 119.99 156.142 122.126 156.142 122.126Z" fill="#32D99C"/>
<path d="M137.8 154.262C139.497 150.592 141.913 147.301 144.905 144.581C148.191 141.602 152.25 139.607 156.616 138.824C154.651 142.725 151.997 146.238 148.782 149.195C143.262 154.374 137.8 154.262 137.8 154.262Z" fill="#32D99C"/>
<path d="M124.741 161.432C126.953 159.494 129.501 157.977 132.26 156.957C135.282 155.822 138.546 155.487 141.736 155.984C139.279 158.013 136.503 159.62 133.521 160.742C128.343 162.747 124.741 161.432 124.741 161.432Z" fill="#32D99C"/>
<path d="M112.057 164.008C114.27 163.228 116.614 162.887 118.958 163.002C121.54 163.127 124.04 163.954 126.187 165.395C123.765 166.161 121.226 166.494 118.688 166.38C114.259 166.229 112.057 164.008 112.057 164.008Z" fill="#32D99C"/>
<path d="M143.518 142.618C144.426 138.672 146.113 134.947 148.479 131.662C151.069 128.074 154.621 125.293 158.725 123.638C157.604 127.867 155.732 131.86 153.198 135.428C148.854 141.638 143.518 142.618 143.518 142.618Z" fill="#32D99C"/>
<path d="M148.597 127.004C148.028 122.942 148.251 118.809 149.254 114.833C150.339 110.539 152.617 106.64 155.826 103.588C156.291 107.989 155.982 112.437 154.913 116.732C153.197 124.184 148.597 127.004 148.597 127.004Z" fill="#32D99C"/>
<path d="M107.851 167.96C109.013 167.96 109.954 167.018 109.954 165.857C109.954 164.695 109.013 163.754 107.851 163.754C106.69 163.754 105.748 164.695 105.748 165.857C105.748 167.018 106.69 167.96 107.851 167.96Z" fill="#32D99C"/>
<path d="M65.7319 44.09H60.8161V58.601H57.0109V44.09H52.1016V40.5938H65.7319V44.09Z" fill="#32D99C"/>
<path d="M72.4419 45.8914V49.3153H70.5426C69.1494 49.3153 68.4856 49.9725 68.4856 51.3724V58.6015H64.8842V45.8914H68.2227V48.2573C68.2762 47.6019 68.5783 46.9918 69.067 46.552C69.5557 46.1121 70.1942 45.8758 70.8515 45.8914H72.4419Z" fill="#32D99C"/>
<path d="M72.8888 52.2463C72.8888 48.52 75.5176 45.5363 79.1913 45.5363C79.919 45.4943 80.6476 45.6002 81.3332 45.8476C82.0189 46.0949 82.6473 46.4787 83.1805 46.9756V45.8912H86.5256V58.6014H83.1805V57.0635C82.7126 57.6991 82.0924 58.2067 81.3769 58.5398C80.6614 58.8728 79.8737 59.0206 79.0862 58.9694C75.511 58.9628 72.8888 55.9792 72.8888 52.2463ZM83.1805 52.2463C83.1805 51.807 83.094 51.372 82.9259 50.9662C82.7578 50.5603 82.5114 50.1915 82.2007 49.8809C81.8901 49.5703 81.5213 49.3239 81.1155 49.1558C80.7096 48.9877 80.2747 48.9012 79.8354 48.9012C79.3961 48.9012 78.9611 48.9877 78.5552 49.1558C78.1494 49.3239 77.7806 49.5703 77.47 49.8809C77.1594 50.1915 76.913 50.5603 76.7449 50.9662C76.5768 51.372 76.4902 51.807 76.4902 52.2463C76.4902 53.1335 76.8427 53.9843 77.47 54.6117C78.0973 55.239 78.9482 55.5914 79.8354 55.5914C80.7226 55.5914 81.5734 55.239 82.2007 54.6117C82.8281 53.9843 83.1805 53.1335 83.1805 52.2463Z" fill="#32D99C"/>
<path d="M87.9385 45.8906H91.7962L93.7218 52.6072C93.9518 53.3761 94.0833 53.9216 94.2147 54.4868C94.3396 53.8953 94.471 53.3761 94.701 52.6072L96.6332 45.8906H100.491L96.2717 58.6008H92.1511L87.9385 45.8906Z" fill="#32D99C"/>
<path d="M113.424 53.1195H103.987C104.022 53.8994 104.358 54.6352 104.924 55.173C105.49 55.7108 106.242 56.0088 107.023 56.0046C107.647 56.0549 108.27 55.8909 108.789 55.5396C109.307 55.1884 109.69 54.6708 109.875 54.0724H113.319C112.701 57.1875 110.414 58.9882 107.023 58.9882C103.034 58.9882 100.412 56.0506 100.412 52.2717C100.387 51.3954 100.539 50.5232 100.859 49.707C101.178 48.8908 101.659 48.1474 102.273 47.5211C102.886 46.8949 103.619 46.3986 104.429 46.062C105.238 45.7253 106.107 45.5552 106.984 45.5617C110.993 45.5617 113.411 47.9999 113.411 52.5543L113.424 53.1195ZM104.164 50.4184H110.079C109.903 49.7725 109.504 49.2096 108.953 48.8285C108.403 48.4475 107.736 48.2727 107.069 48.3351C106.43 48.3286 105.805 48.524 105.284 48.8933C104.762 49.2626 104.37 49.7871 104.164 50.3921V50.4184Z" fill="#32D99C"/>
<path d="M115.081 40.5938H118.682V58.601H115.081V40.5938Z" fill="#32D99C"/>
<path d="M120.857 40.5938H124.459V58.601H120.857V40.5938Z" fill="#32D99C"/>
<path d="M138.982 53.1204H129.538C129.574 53.9003 129.91 54.6361 130.476 55.1739C131.042 55.7117 131.794 56.0097 132.575 56.0055C133.207 56.0605 133.838 55.8957 134.363 55.5389C134.887 55.1821 135.272 54.6551 135.453 54.047H138.903C138.286 57.1621 135.992 58.9629 132.601 58.9629C128.612 58.9629 125.99 56.0252 125.99 52.2463C125.965 51.37 126.117 50.4978 126.437 49.6816C126.756 48.8654 127.237 48.122 127.851 47.4957C128.464 46.8695 129.197 46.3732 130.007 46.0366C130.816 45.6999 131.685 45.5298 132.562 45.5363C136.57 45.5363 138.989 47.9745 138.989 52.5289L138.982 53.1204ZM129.722 50.4193H135.637C135.458 49.7748 135.059 49.2133 134.509 48.8327C133.959 48.452 133.293 48.2763 132.627 48.336C131.988 48.3295 131.363 48.5249 130.842 48.8942C130.32 49.2635 129.928 49.788 129.722 50.393V50.4193Z" fill="#32D99C"/>
<path d="M148.216 45.8914V49.3153H146.311C144.924 49.3153 144.254 49.9725 144.254 51.3724V58.6015H140.652V45.8914H143.997V48.2573C144.051 47.6019 144.353 46.9918 144.842 46.552C145.33 46.1121 145.969 45.8758 146.626 45.8914H148.216Z" fill="#32D99C"/>
<path d="M149.19 54.4346H152.844C152.827 54.6269 152.851 54.8206 152.915 55.0027C152.979 55.1847 153.082 55.3509 153.216 55.4899C153.35 55.6288 153.512 55.7374 153.692 55.8082C153.871 55.879 154.064 55.9103 154.257 55.9001C155.105 55.9001 155.624 55.4861 155.624 54.842C155.624 54.198 155.052 53.7642 153.895 53.4291L152.226 52.9427C150.55 52.4498 149.394 51.2669 149.394 49.4202C149.394 47.074 151.503 45.5361 154.132 45.5361C157.109 45.5361 158.732 47.2317 158.732 49.5976H155.335C155.334 49.4351 155.3 49.2745 155.237 49.1251C155.173 48.9757 155.079 48.8407 154.962 48.7279C154.845 48.6152 154.707 48.5271 154.555 48.4688C154.404 48.4104 154.242 48.3831 154.079 48.3884C153.356 48.3884 152.87 48.8024 152.87 49.2887C152.87 49.8802 153.33 50.1628 154.336 50.4454L156.189 50.958C157.885 51.4246 159.067 52.5813 159.067 54.4872C159.067 56.8794 157.188 58.9627 154.178 58.9627C151.431 58.9627 149.19 57.2342 149.19 54.4346Z" fill="#32D99C"/>
<path d="M160.493 46.4364H160.828C161.066 46.4462 161.304 46.4075 161.527 46.3225C161.749 46.2374 161.952 46.108 162.123 45.9419C162.294 45.7759 162.429 45.5768 162.521 45.3567C162.612 45.1367 162.658 44.9003 162.655 44.662C162.494 44.7341 162.319 44.7679 162.143 44.7606C161.845 44.766 161.55 44.7111 161.274 44.5991C160.998 44.4872 160.748 44.3205 160.539 44.1092C160.329 43.898 160.165 43.6464 160.055 43.3698C159.946 43.0932 159.893 42.7972 159.902 42.4998C159.9 42.2016 159.957 41.9059 160.071 41.6301C160.184 41.3542 160.351 41.1035 160.562 40.8927C160.773 40.6818 161.023 40.5148 161.299 40.4015C161.575 40.2882 161.871 40.2307 162.169 40.2325C163.786 40.2325 164.686 41.7243 164.686 43.6827C164.686 46.8176 163.174 48.2831 161.038 48.2831H160.493V46.4364Z" fill="#32D99C"/>
<path d="M68.4194 72.7313C68.4194 67.2042 72.5401 63.3662 77.5019 63.3662C82.3389 63.3662 85.3883 66.041 86.0455 70.3128H82.168C81.6028 68.236 79.9072 66.9216 77.4888 66.9216C74.5839 66.9216 72.2312 69.2876 72.2312 72.7313C72.2312 76.175 74.5971 78.5475 77.4888 78.5475C79.881 78.5475 81.6028 77.3119 82.168 75.1235H86.1112C85.3423 79.4478 81.9446 82.0963 77.469 82.0963C72.4481 82.0963 68.4194 78.2649 68.4194 72.7313Z" fill="#32D99C"/>
<path d="M87.7271 63.7266H91.3285V70.752C91.7566 70.0788 92.3557 69.5312 93.0646 69.1652C93.7735 68.7992 94.5669 68.6278 95.3637 68.6687C97.8808 68.6687 99.6552 70.4431 99.6552 73.3479V81.7338H96.0537V74.3797C96.078 74.0542 96.0349 73.7272 95.927 73.4191C95.8191 73.111 95.6488 72.8285 95.4267 72.5893C95.2046 72.35 94.9356 72.1592 94.6364 72.0287C94.3372 71.8981 94.0143 71.8308 93.6878 71.8308C93.3614 71.8308 93.0385 71.8981 92.7393 72.0287C92.4401 72.1592 92.171 72.35 91.949 72.5893C91.7269 72.8285 91.5566 73.111 91.4487 73.4191C91.3408 73.7272 91.2976 74.0542 91.3219 74.3797V81.7338H87.7271V63.7266Z" fill="#32D99C"/>
<path d="M101.055 75.3795C101.035 74.48 101.2 73.5861 101.54 72.753C101.88 71.92 102.387 71.1656 103.03 70.5365C103.674 69.9075 104.439 69.4172 105.28 69.096C106.12 68.7749 107.017 68.6297 107.916 68.6695C112.063 68.6695 114.791 71.6532 114.791 75.3795C114.791 79.1058 112.063 82.0961 107.916 82.0961C107.017 82.1359 106.119 81.9906 105.278 81.669C104.437 81.3475 103.671 80.8566 103.028 80.2268C102.385 79.5971 101.878 78.8419 101.538 78.008C101.199 77.1742 101.034 76.2795 101.055 75.3795ZM111.189 75.3795C111.172 74.7335 110.965 74.1068 110.594 73.5778C110.223 73.0487 109.704 72.6409 109.102 72.4052C108.501 72.1696 107.843 72.1166 107.211 72.2529C106.58 72.3891 106.002 72.7086 105.551 73.1714C105.1 73.6342 104.795 74.2197 104.675 74.8547C104.555 75.4896 104.625 76.1459 104.876 76.7414C105.127 77.3369 105.548 77.8451 106.087 78.2025C106.625 78.56 107.257 78.7507 107.903 78.7509C108.346 78.7644 108.786 78.6857 109.196 78.5199C109.607 78.3541 109.978 78.1048 110.287 77.7877C110.596 77.4707 110.836 77.0929 110.991 76.6784C111.147 76.2638 111.214 75.8215 111.189 75.3795Z" fill="#32D99C"/>
<path d="M115.738 65.1394C115.738 64.691 115.871 64.2526 116.12 63.8797C116.369 63.5069 116.723 63.2163 117.137 63.0447C117.552 62.8731 118.008 62.8282 118.447 62.9156C118.887 63.0031 119.291 63.2191 119.608 63.5362C119.925 63.8532 120.141 64.2572 120.229 64.6971C120.316 65.1369 120.271 65.5928 120.1 66.0071C119.928 66.4214 119.638 66.7755 119.265 67.0246C118.892 67.2738 118.453 67.4067 118.005 67.4067C117.707 67.4085 117.411 67.351 117.135 67.2377C116.859 67.1244 116.609 66.9574 116.398 66.7465C116.187 66.5356 116.02 66.285 115.907 66.0091C115.793 65.7333 115.736 65.4376 115.738 65.1394ZM116.204 69.0234H119.806V81.7336H116.204V69.0234Z" fill="#32D99C"/>
<path d="M121.277 75.3781C121.25 74.4895 121.405 73.6048 121.733 72.7783C122.06 71.9519 122.553 71.2012 123.182 70.5726C123.811 69.944 124.561 69.4507 125.388 69.1232C126.214 68.7957 127.099 68.6408 127.987 68.6681C132.003 68.6681 134.165 70.804 134.559 73.7877H130.807C130.445 72.7296 129.545 72.0067 128.001 72.0067C127.158 72.0812 126.374 72.4686 125.802 73.0926C125.231 73.7167 124.914 74.532 124.914 75.3781C124.914 76.2242 125.231 77.0395 125.802 77.6636C126.374 78.2876 127.158 78.675 128.001 78.7495C128.599 78.8107 129.202 78.6691 129.71 78.3474C130.219 78.0256 130.605 77.5424 130.807 76.9751H134.559C133.968 80.0836 131.885 82.0947 127.987 82.0947C127.098 82.122 126.213 81.967 125.386 81.639C124.559 81.3111 123.808 80.8173 123.179 80.1879C122.551 79.5586 122.058 78.8072 121.731 77.9799C121.403 77.1527 121.249 76.2672 121.277 75.3781Z" fill="#32D99C"/>
<path d="M148.249 76.2269H138.812C138.847 77.0057 139.182 77.7406 139.747 78.2782C140.311 78.8158 141.062 79.1145 141.841 79.112C142.466 79.1626 143.09 78.9989 143.61 78.6477C144.129 78.2965 144.514 77.7788 144.7 77.1798H148.144C147.526 80.2949 145.239 82.0957 141.841 82.0957C137.859 82.0957 135.236 79.1646 135.236 75.3791C135.212 74.5029 135.364 73.6306 135.684 72.8144C136.003 71.9982 136.484 71.2548 137.098 70.6286C137.711 70.0023 138.444 69.506 139.254 69.1694C140.063 68.8327 140.932 68.6626 141.808 68.6691C145.817 68.6691 148.236 71.1073 148.236 75.6617L148.249 76.2269ZM138.989 73.5258H144.904C144.726 72.8806 144.327 72.3184 143.777 71.9376C143.227 71.5567 142.56 71.3815 141.894 71.4425C141.251 71.4368 140.624 71.6356 140.101 72.0101C139.579 72.3846 139.19 72.9154 138.989 73.5258Z" fill="#32D99C"/>
<path d="M147.151 64.7373H149.294V65.1973H148.472V67.6158H147.979V65.1973H147.151V64.7373Z" fill="#32D99C"/>
<path d="M151.095 66.9192L150.313 64.757H149.722V67.6355H150.195V66.0123C150.195 65.8545 150.195 65.7231 150.195 65.5719L150.944 67.6158H151.306L152.015 65.6048C152.015 65.756 152.015 65.8874 152.015 66.0451V67.6487H152.495V64.7373H151.884L151.095 66.9192Z" fill="#32D99C"/>
</svg>
