<svg width="22" height="23" viewBox="0 0 22 23" fill="none" xmlns="http://www.w3.org/2000/svg">
<g clip-path="url(#clip0_132_166)">
<path d="M22 4.1665H0V18.8333H22V4.1665Z" fill="#F0F0F0"/>
<path d="M12.375 4.1665H9.625V10.1248H0V12.8748H9.625V18.8331H12.375V12.8748H22V10.1248H12.375V4.1665Z" fill="#E50012"/>
<path d="M16.9207 14.0503L22.0003 16.8723V14.0503H16.9207Z" fill="#0052B4"/>
<path d="M13.3914 14.0503L22.0001 18.8329V17.4805L15.8258 14.0503H13.3914Z" fill="#0052B4"/>
<path d="M19.7071 18.8332L13.3914 15.3242V18.8332H19.7071Z" fill="#0052B4"/>
<path d="M13.3914 14.0503L22.0001 18.8329V17.4805L15.8258 14.0503H13.3914Z" fill="#F0F0F0"/>
<path d="M13.3914 14.0503L22.0001 18.8329V17.4805L15.8258 14.0503H13.3914Z" fill="#E50012"/>
<path d="M3.88184 14.0503L0 16.2069V14.0503H3.88184Z" fill="#0052B4"/>
<path d="M8.60848 14.6582V18.8327H1.09509L8.60848 14.6582Z" fill="#0052B4"/>
<path d="M6.17431 14.0503L0 17.4805V18.8329L8.6087 14.0503H6.17431Z" fill="#E50012"/>
<path d="M5.07955 8.94897L0 6.12695V8.94897H5.07955Z" fill="#0052B4"/>
<path d="M8.6087 8.9491L0 4.1665V5.5189L6.17431 8.9491H8.6087Z" fill="#0052B4"/>
<path d="M2.29285 4.1665L8.60848 7.6755V4.1665H2.29285Z" fill="#0052B4"/>
<path d="M8.6087 8.9491L0 4.1665V5.5189L6.17431 8.9491H8.6087Z" fill="#F0F0F0"/>
<path d="M8.6087 8.9491L0 4.1665V5.5189L6.17431 8.9491H8.6087Z" fill="#E50012"/>
<path d="M18.1184 8.94908L22.0002 6.79248V8.94908H18.1184Z" fill="#0052B4"/>
<path d="M13.3914 8.34095V4.1665H20.9048L13.3914 8.34095Z" fill="#0052B4"/>
<path d="M15.8258 8.9491L22.0001 5.5189V4.1665L13.3914 8.9491H15.8258Z" fill="#E50012"/>
</g>
<defs>
<clipPath id="clip0_132_166">
<rect width="22" height="22" fill="white" transform="translate(0 0.5)"/>
</clipPath>
</defs>
</svg>
