<svg width="23" height="16" viewBox="0 0 23 16" fill="none" xmlns="http://www.w3.org/2000/svg">
<path d="M11.0947 14.2932C9.98584 14.9448 8.72449 15.2918 7.43838 15.2991C6.15227 15.3064 4.88705 14.9739 3.77078 14.3351C2.65452 13.6962 1.72684 12.7738 1.08166 11.6613C0.43647 10.5487 0.0966797 9.28535 0.0966797 7.99922C0.0966797 6.71309 0.43647 5.44978 1.08166 4.33719C1.72684 3.22459 2.65452 2.3022 3.77078 1.66338C4.88705 1.02456 6.15227 0.691991 7.43838 0.699338C8.72449 0.706685 9.98584 1.05369 11.0947 1.70522C12.2036 1.05369 13.465 0.706685 14.7511 0.699338C16.0372 0.691991 17.3024 1.02456 18.4187 1.66338C19.5349 2.3022 20.4626 3.22459 21.1078 4.33719C21.753 5.44978 22.0928 6.71309 22.0928 7.99922C22.0928 9.28535 21.753 10.5487 21.1078 11.6613C20.4626 12.7738 19.5349 13.6962 18.4187 14.3351C17.3024 14.9739 16.0372 15.3064 14.7511 15.2991C13.465 15.2918 12.2036 14.9448 11.0947 14.2932V14.2932ZM12.7967 12.9092C13.6014 13.2362 14.4741 13.3605 15.3381 13.271C16.2021 13.1816 17.0308 12.8811 17.7514 12.3961C18.472 11.9112 19.0624 11.2565 19.4705 10.4898C19.8787 9.7231 20.0922 8.86781 20.0922 7.99922C20.0922 7.13062 19.8787 6.27534 19.4705 5.50863C19.0624 4.74191 18.472 4.08726 17.7514 3.60229C17.0308 3.11731 16.2021 2.81688 15.3381 2.72741C14.4741 2.63794 13.6014 2.76219 12.7967 3.08922C14.0203 4.43149 14.6973 6.18298 14.6947 7.99922C14.6947 9.88922 13.9757 11.6132 12.7967 12.9092ZM9.39273 3.08922C8.58805 2.76219 7.71533 2.63794 6.85135 2.72741C5.98738 2.81688 5.15863 3.11731 4.43804 3.60229C3.71744 4.08726 3.12708 4.74191 2.71891 5.50863C2.31074 6.27534 2.09726 7.13062 2.09726 7.99922C2.09726 8.86781 2.31074 9.7231 2.71891 10.4898C3.12708 11.2565 3.71744 11.9112 4.43804 12.3961C5.15863 12.8811 5.98738 13.1816 6.85135 13.271C7.71533 13.3605 8.58805 13.2362 9.39273 12.9092C8.16918 11.567 7.49213 9.81546 7.49473 7.99922C7.49473 6.10922 8.21373 4.38522 9.39273 3.08922ZM11.0947 4.20422C10.5876 4.69746 10.1846 5.28752 9.90977 5.93942C9.63493 6.59131 9.49379 7.29176 9.49473 7.99922C9.49473 9.48722 10.1077 10.8312 11.0947 11.7942C11.6019 11.301 12.0048 10.7109 12.2797 10.059C12.5545 9.40713 12.6957 8.70668 12.6947 7.99922C12.6957 7.29176 12.5545 6.59131 12.2797 5.93942C12.0048 5.28752 11.6019 4.69746 11.0947 4.20422V4.20422Z" fill="white" fill-opacity="0.5"/>
</svg>
